{
.appVersion = "973";
classes = (
{
code = "uniA90C uniA90F uniA910 uniA912 uniA916 uniA919 uniA91A uniA91F uniA921";
name = ccmp1;
}
);
copyright = "Copyright 2017 Google Inc. All Rights Reserved.";
customParameters = (
{
name = glyphOrder;
value = (
.notdef,
NULL,
CR,
space,
hyphen,
uni2010,
uniA900,
uniA901,
uniA902,
uniA903,
uniA904,
uniA905,
uniA906,
uniA907,
uniA908,
uniA909,
uniA90A,
uniA90B,
uniA90C,
uniA90D,
uniA90E,
uniA90F,
uniA910,
uniA911,
uniA912,
uniA913,
uniA914,
uniA915,
uniA916,
uniA917,
uniA918,
uniA919,
uniA91A,
uniA91B,
uniA91C,
uniA91D,
uniA91E,
uniA91F,
uniA920,
uniA921,
uniA922,
uniA923,
uniA924,
uniA925,
uniA926,
uniA927,
uniA928,
uniA929,
uniA92A,
uniA92B,
uniA92C,
uniA92D,
uniA92E,
uniA92F,
uniA92C.alt,
uniA92D.alt,
uni00A0
);
},
{
name = description;
value = "Designed by Monotype design team.";
},
{
name = license;
value = "This Font Software is licensed under the SIL Open Font License, Version 1.1. This Font Software is distributed on an \"AS IS\" BASIS, WITHOUT WARRANTIES OR CONDITIONS OF ANY KIND, either express or implied. See the SIL Open Font License for the specific language, permissions and limitations governing your use of this Font Software.";
},
{
name = licenseURL;
value = "http://scripts.sil.org/OFL";
},
{
name = vendorID;
value = GOOG;
},
{
name = unicodeRanges;
value = (
0,
1,
31,
45,
116
);
},
{
name = trademark;
value = "Noto is a trademark of Google Inc.";
},
{
name = "Has WWS Names";
value = 1;
},
{
name = versionString;
value = "Version 1.900";
},
{
name = fsType;
value = (
);
},
{
name = codePageRanges;
value = (
"1252"
);
}
);
date = "2017-03-02 15:28:01 +0000";
designer = "Monotype Design Team";
designerURL = "http://www.monotype.com/studio";
disablesAutomaticAlignment = 1;
disablesNiceNames = 1;
familyName = "Noto Sans Kayah Li";
featurePrefixes = (
{
code = "languagesystem DFLT dflt;\012languagesystem kali dflt;";
name = Languagesystems;
}
);
features = (
{

glyphs = (
{
glyphname = .notdef;
lastChange = "2017-02-23 22:13:51 +0000";
layers = (
{
layerId = UUID0;
paths = (
{
closed = 1;
nodes = (
"505 0 LINE",
"505 714 LINE",
"94 714 LINE",
"94 0 LINE"
);
},
{
closed = 1;
nodes = (
"145 663 LINE",
"454 663 LINE",
"454 51 LINE",
"145 51 LINE"
);
}
);
width = 600;
}
);
},
{
glyphname = hyphen;
production = hyphen;
lastChange = "2017-03-02 15:22:20 +0000";
layers = (
{
associatedMasterId = UUID0;
background = {
paths = (
{
closed = 1;
nodes = (
"297 192 LINE",
"297 344 LINE",
"21 344 LINE",
"21 192 LINE"
);
}
);
};
layerId = "0A718E2F-231D-484E-9433-16A5230D2CE8";
name = "new Layer";
paths = (
{
closed = 1;
nodes = (
"297 192 LINE",
"297 344 LINE",
"21 344 LINE",
"21 192 LINE"
);
}
);
width = 318;
},
{
associatedMasterId = UUID0;
background = {
paths = (
{
closed = 1;
nodes = (
"296 192 LINE",
"296 344 LINE",
"29 344 LINE",
"29 192 LINE"
);
}
);
};
layerId = "98E204A9-1C79-49C7-AB3E-40A925F56409";
name = "new Layer";
paths = (
{
closed = 1;
nodes = (
"296 192 LINE",
"296 344 LINE",
"29 344 LINE",
"29 192 LINE"
);
}
);
width = 325;
},
{
associatedMasterId = UUID0;
background = {
paths = (
{
closed = 1;
nodes = (
"282 229 LINE",
"282 307 LINE",
"40 307 LINE",
"40 229 LINE"
);
}
);
};
layerId = "9FF96064-8718-4A86-A5C8-73C592101F67";
name = "new Layer";
paths = (
{
closed = 1;
nodes = (
"282 229 LINE",
"282 307 LINE",
"40 307 LINE",
"40 229 LINE"
);
}
);
width = 322;
},
{
associatedMasterId = UUID0;
background = {
paths = (
{
closed = 1;
nodes = (
"292 207 LINE",
"292 329 LINE",
"30 329 LINE",
"30 207 LINE"
);
}
);
};
layerId = "134B12F2-BF5D-48E3-8003-C7502B438C7E";
name = "new Layer";
paths = (
{
closed = 1;
nodes = (
"292 207 LINE",
"292 329 LINE",
"30 329 LINE",
"30 207 LINE"
);
}
);
width = 322;
},
{
associatedMasterId = UUID0;
background = {
paths = (
{
closed = 1;
nodes = (
"247 229 LINE",
"247 310 LINE",
"27 310 LINE",
"27 229 LINE"
);
}
);
};
layerId = "36F3C8CB-53EE-4548-BFDE-2C03212BACAA";
name = "new Layer";
paths = (
{
closed = 1;
nodes = (
"247 229 LINE",
"247 310 LINE",
"27 310 LINE",
"27 229 LINE"
);
}
);
width = 274;
},
{
associatedMasterId = UUID0;
background = {
paths = (
{
closed = 1;
nodes = (
"277 206 LINE",
"277 331 LINE",
"28 331 LINE",
"28 206 LINE"
);
}
);
};
layerId = "43B45EC1-5522-4B1A-B0C7-88628E50A583";
name = "new Layer";
paths = (
{
closed = 1;
nodes = (
"277 206 LINE",
"277 331 LINE",
"28 331 LINE",
"28 206 LINE"
);
}
);
width = 305;
},
{
layerId = UUID0;
paths = (
{
closed = 1;
nodes = (
"282 229 LINE",
"282 307 LINE",
"40 307 LINE",
"40 229 LINE"
);
}
);
width = 322;
},
{
associatedMasterId = UUID0;
background = {
paths = (
{
closed = 1;
nodes = (
"237 259 LINE",
"237 286 LINE",
"26 286 LINE",
"26 259 LINE"
);
}
);
};
layerId = "029FEF0C-5FA4-4A3E-AC23-838A1147A554";
name = "new Layer";
paths = (
{
closed = 1;
nodes = (
"237 259 LINE",
"237 286 LINE",
"26 286 LINE",
"26 259 LINE"
);
}
);
width = 263;
}
);
leftKerningGroup = hyphen.right;
rightKerningGroup = hyphen.left;
unicode = 002D;
},
{
glyphname = uni2010;
production = uni2010;
lastChange = "2017-03-02 15:22:20 +0000";
layers = (
{
associatedMasterId = UUID0;
background = {
paths = (
{
closed = 1;
nodes = (
"297 192 LINE",
"297 344 LINE",
"21 344 LINE",
"21 192 LINE"
);
}
);
};
layerId = "0A718E2F-231D-484E-9433-16A5230D2CE8";
name = "new Layer";
paths = (
{
closed = 1;
nodes = (
"297 192 LINE",
"297 344 LINE",
"21 344 LINE",
"21 192 LINE"
);
}
);
width = 318;
},
{
associatedMasterId = UUID0;
background = {
paths = (
{
closed = 1;
nodes = (
"296 192 LINE",
"296 344 LINE",
"29 344 LINE",
"29 192 LINE"
);
}
);
};
layerId = "98E204A9-1C79-49C7-AB3E-40A925F56409";
name = "new Layer";
paths = (
{
closed = 1;
nodes = (
"296 192 LINE",
"296 344 LINE",
"29 344 LINE",
"29 192 LINE"
);
}
);
width = 325;
},
{
associatedMasterId = UUID0;
background = {
paths = (
{
closed = 1;
nodes = (
"282 229 LINE",
"282 307 LINE",
"40 307 LINE",
"40 229 LINE"
);
}
);
};
layerId = "9FF96064-8718-4A86-A5C8-73C592101F67";
name = "new Layer";
paths = (
{
closed = 1;
nodes = (
"282 229 LINE",
"282 307 LINE",
"40 307 LINE",
"40 229 LINE"
);
}
);
width = 322;
},
{
associatedMasterId = UUID0;
background = {
paths = (
{
closed = 1;
nodes = (
"292 207 LINE",
"292 329 LINE",
"30 329 LINE",
"30 207 LINE"
);
}
);
};
layerId = "134B12F2-BF5D-48E3-8003-C7502B438C7E";
name = "new Layer";
paths = (
{
closed = 1;
nodes = (
"292 207 LINE",
"292 329 LINE",
"30 329 LINE",
"30 207 LINE"
);
}
);
width = 322;
},
{
associatedMasterId = UUID0;
background = {
paths = (
{
closed = 1;
nodes = (
"247 229 LINE",
"247 310 LINE",
"27 310 LINE",
"27 229 LINE"
);
}
);
};
layerId = "36F3C8CB-53EE-4548-BFDE-2C03212BACAA";
name = "new Layer";
paths = (
{
closed = 1;
nodes = (
"247 229 LINE",
"247 310 LINE",
"27 310 LINE",
"27 229 LINE"
);
}
);
width = 274;
},
{
associatedMasterId = UUID0;
background = {
paths = (
{
closed = 1;
nodes = (
"277 206 LINE",
"277 331 LINE",
"28 331 LINE",
"28 206 LINE"
);
}
);
};
layerId = "43B45EC1-5522-4B1A-B0C7-88628E50A583";
name = "new Layer";
paths = (
{
closed = 1;
nodes = (
"277 206 LINE",
"277 331 LINE",
"28 331 LINE",
"28 206 LINE"
);
}
);
width = 305;
},
{
layerId = UUID0;
paths = (
{
closed = 1;
nodes = (
"282 229 LINE",
"282 307 LINE",
"40 307 LINE",
"40 229 LINE"
);
}
);
width = 322;
},
{
associatedMasterId = UUID0;
background = {
paths = (
{
closed = 1;
nodes = (
"237 259 LINE",
"237 286 LINE",
"26 286 LINE",
"26 259 LINE"
);
}
);
};
layerId = "029FEF0C-5FA4-4A3E-AC23-838A1147A554";
name = "new Layer";
paths = (
{
closed = 1;
nodes = (
"237 259 LINE",
"237 286 LINE",
"26 286 LINE",
"26 259 LINE"
);
}
);
width = 263;
}
);
leftKerningGroup = hyphen.right;
rightKerningGroup = hyphen.left;
unicode = 2010;
},
{
glyphname = uniA900;
lastChange = "2017-02-23 22:13:51 +0000";
layers = (
{
layerId = UUID0;
paths = (
{
closed = 1;
nodes = (
"628 -10 OFFCURVE",
"684 49 OFFCURVE",
"684 272 CURVE SMOOTH",
"684 494 OFFCURVE",
"620 546 OFFCURVE",
"387 546 CURVE SMOOTH",
"139 546 OFFCURVE",
"88 494 OFFCURVE",
"88 272 CURVE SMOOTH",
"88 49 OFFCURVE",
"154 -10 OFFCURVE",
"382 -10 CURVE SMOOTH"
);
},
{
closed = 1;
nodes = (
"210 60 OFFCURVE",
"177 113 OFFCURVE",
"177 272 CURVE SMOOTH",
"177 436 OFFCURVE",
"203 476 OFFCURVE",
"384 476 CURVE SMOOTH",
"559 476 OFFCURVE",
"595 431 OFFCURVE",
"595 272 CURVE SMOOTH",
"595 107 OFFCURVE",
"563 60 OFFCURVE",
"385 60 CURVE SMOOTH"
);
}
);
width = 772;
}
);
unicode = A900;
category = Letter;
},
{
glyphname = uniA901;
lastChange = "2017-02-23 22:13:51 +0000";
layers = (
{
layerId = UUID0;
paths = (
{
closed = 1;
nodes = (
"539 0 LINE SMOOTH",
"629 0 OFFCURVE",
"684 24 OFFCURVE",
"684 131 CURVE SMOOTH",
"684 205 LINE",
"630 205 LINE SMOOTH",
"480 205 OFFCURVE",
"411 162 OFFCURVE",
"328 69 CURVE",
"189 69 OFFCURVE",
"177 92 OFFCURVE",
"177 189 CURVE SMOOTH",
"177 270 OFFCURVE",
"198 293 OFFCURVE",
"374 293 CURVE SMOOTH",
"555 293 OFFCURVE",
"585 280 OFFCURVE",
"600 241 CURVE",
"684 241 LINE",
"684 536 LINE",
"88 536 LINE",
"88 467 LINE",
"600 467 LINE",
"600 341 LINE",
"549 358 OFFCURVE",
"474 364 OFFCURVE",
"377 364 CURVE SMOOTH",
"139 364 OFFCURVE",
"88 307 OFFCURVE",
"88 189 CURVE SMOOTH",
"88 22 OFFCURVE",
"135 0 OFFCURVE",
"375 0 CURVE SMOOTH"
);
},
{
closed = 1;
nodes = (
"477 119 OFFCURVE",
"499 135 OFFCURVE",
"598 139 CURVE",
"598 124 LINE SMOOTH",
"598 99 OFFCURVE",
"586 69 OFFCURVE",
"541 69 CURVE SMOOTH",
"419 69 LINE"
);
}
);
width = 772;
}
);
unicode = A901;
category = Letter;
},
{
glyphname = uniA902;
lastChange = "2017-02-23 22:13:51 +0000";
layers = (
{
layerId = UUID0;
paths = (
{
closed = 1;
nodes = (
"393 0 LINE",
"684 536 LINE",
"591 536 LINE",
"389 144 LINE",
"187 536 LINE",
"88 536 LINE",
"378 0 LINE"
);
}
);
width = 772;
}
);
unicode = A902;
category = Letter;
},
{
glyphname = uniA903;
lastChange = "2017-02-23 22:13:51 +0000";
layers = (
{
layerId = UUID0;
paths = (
{
closed = 1;
nodes = (
"539 0 LINE SMOOTH",
"629 0 OFFCURVE",
"684 24 OFFCURVE",
"684 131 CURVE SMOOTH",
"684 259 LINE",
"633 259 LINE SMOOTH",
"483 259 OFFCURVE",
"361 162 OFFCURVE",
"278 69 CURVE",
"187 69 LINE",
"654 523 LINE",
"654 536 LINE",
"290 536 LINE SMOOTH",
"168 536 OFFCURVE",
"89 512 OFFCURVE",
"89 361 CURVE",
"171 361 LINE",
"171 445 OFFCURVE",
"225 467 OFFCURVE",
"290 467 CURVE SMOOTH",
"488 467 LINE",
"88 76 LINE",
"88 0 LINE"
);
},
{
closed = 1;
nodes = (
"432 119 OFFCURVE",
"500 180 OFFCURVE",
"599 184 CURVE",
"599 124 LINE SMOOTH",
"599 99 OFFCURVE",
"586 69 OFFCURVE",
"541 69 CURVE SMOOTH",
"374 69 LINE"
);
}
);
width = 772;
}
);
unicode = A903;
category = Letter;
},
{
glyphname = uniA904;
lastChange = "2017-02-23 22:13:51 +0000";
layers = (
{
layerId = UUID0;
paths = (
{
closed = 1;
nodes = (
"520 -5 LINE SMOOTH",
"637 -5 OFFCURVE",
"684 60 OFFCURVE",
"684 170 CURVE SMOOTH",
"684 546 LINE",
"607 546 LINE SMOOTH",
"437 546 OFFCURVE",
"242 456 OFFCURVE",
"170 351 CURVE",
"165 352 LINE",
"169 369 OFFCURVE",
"174 408 OFFCURVE",
"174 458 CURVE SMOOTH",
"174 536 LINE",
"88 536 LINE",
"88 230 LINE",
"174 230 LINE",
"197 333 OFFCURVE",
"397 476 OFFCURVE",
"598 476 CURVE",
"598 155 LINE SMOOTH",
"598 90 OFFCURVE",
"562 67 OFFCURVE",
"527 67 CURVE",
"494 67 LINE",
"494 -5 LINE"
);
}
);
width = 772;
}
);
unicode = A904;
},
{
glyphname = uniA905;
lastChange = "2017-02-23 22:13:51 +0000";
layers = (
{
layerId = UUID0;
paths = (
{
closed = 1;
nodes = (
"329 0 LINE",
"329 69 LINE",
"174 69 LINE",
"174 467 LINE",
"684 467 LINE",
"684 536 LINE",
"88 536 LINE",
"88 0 LINE"
);
}
);
width = 772;
}
);
unicode = A905;
category = Letter;
},
{
glyphname = uniA906;
lastChange = "2017-02-23 22:13:51 +0000";
layers = (
{
layerId = UUID0;
paths = (
{
closed = 1;
nodes = (
"637 -10 OFFCURVE",
"684 42 OFFCURVE",
"684 152 CURVE SMOOTH",
"684 546 LINE",
"607 546 LINE",
"174 283 LINE",
"174 536 LINE",
"88 536 LINE",
"88 0 LINE",
"174 0 LINE",
"174 200 LINE",
"598 458 LINE",
"598 214 LINE",
"586 219 OFFCURVE",
"566 224 OFFCURVE",
"546 224 CURVE SMOOTH",
"448 224 OFFCURVE",
"415 176 OFFCURVE",
"415 107 CURVE SMOOTH",
"415 39 OFFCURVE",
"447 -10 OFFCURVE",
"548 -10 CURVE SMOOTH"
);
},
{
closed = 1;
nodes = (
"519 49 OFFCURVE",
"486 65 OFFCURVE",
"486 107 CURVE SMOOTH",
"486 147 OFFCURVE",
"516 165 OFFCURVE",
"547 165 CURVE SMOOTH",
"568 165 OFFCURVE",
"586 156 OFFCURVE",
"598 151 CURVE",
"598 137 LINE SMOOTH",
"598 72 OFFCURVE",
"577 49 OFFCURVE",
"547 49 CURVE SMOOTH"
);
}
);
width = 772;
}
);
unicode = A906;
category = Letter;
},
{
glyphname = uniA907;
lastChange = "2017-02-23 22:13:51 +0000";
layers = (
{
layerId = UUID0;
paths = (
{
closed = 1;
nodes = (
"628 -10 OFFCURVE",
"684 49 OFFCURVE",
"684 272 CURVE SMOOTH",
"684 536 LINE",
"598 536 LINE",
"598 272 LINE SMOOTH",
"598 107 OFFCURVE",
"563 60 OFFCURVE",
"385 60 CURVE SMOOTH",
"210 60 OFFCURVE",
"174 113 OFFCURVE",
"174 272 CURVE SMOOTH",
"174 411 LINE",
"88 411 LINE",
"88 272 LINE SMOOTH",
"88 49 OFFCURVE",
"154 -10 OFFCURVE",
"382 -10 CURVE"
);
},
{
closed = 1;
nodes = (
"640 466 LINE",
"641 480 OFFCURVE",
"641 496 OFFCURVE",
"641 509 CURVE",
"608 536 LINE",
"443 536 LINE",
"443 466 LINE"
);
}
);
width = 772;
}
);
unicode = A907;
category = Letter;
},
{
glyphname = uniA908;
lastChange = "2017-02-23 22:13:51 +0000";
layers = (
{
layerId = UUID0;
paths = (
{
closed = 1;
nodes = (
"684 0 LINE",
"684 261 LINE",
"598 261 LINE",
"598 69 LINE",
"174 69 LINE",
"174 536 LINE",
"88 536 LINE",
"88 0 LINE"
);
}
);
width = 772;
}
);
unicode = A908;
category = Letter;
},
{
glyphname = uniA909;
lastChange = "2017-02-23 22:13:51 +0000";
layers = (
{
layerId = UUID0;
paths = (
{
closed = 1;
nodes = (
"628 -10 OFFCURVE",
"684 49 OFFCURVE",
"684 272 CURVE SMOOTH",
"684 411 LINE",
"598 411 LINE",
"598 272 LINE SMOOTH",
"598 107 OFFCURVE",
"563 60 OFFCURVE",
"385 60 CURVE",
"210 60 OFFCURVE",
"174 113 OFFCURVE",
"174 272 CURVE SMOOTH",
"174 536 LINE",
"88 536 LINE",
"88 272 LINE SMOOTH",
"88 49 OFFCURVE",
"154 -10 OFFCURVE",
"382 -10 CURVE"
);
},
{
closed = 1;
nodes = (
"329 467 LINE",
"329 536 LINE",
"164 536 LINE",
"131 509 LINE",
"131 496 OFFCURVE",
"131 481 OFFCURVE",
"132 467 CURVE"
);
}
);
width = 772;
}
);
unicode = A909;
category = Letter;
},
{
glyphname = uniA90A;
lastChange = "2017-02-23 22:13:51 +0000";
layers = (
{
anchors = (
{
name = bottom;
position = "{385, 0}";
},
{
name = bottom_alt;
position = "{175, 0}";
},
{
name = top;
position = "{385, 605}";
}
);
layerId = UUID0;
paths = (
{
closed = 1;
nodes = (
"163 33 LINE",
"163 42 OFFCURVE",
"162 52 OFFCURVE",
"162 61 CURVE SMOOTH",
"162 369 OFFCURVE",
"434 477 OFFCURVE",
"598 477 CURVE",
"598 0 LINE",
"684 0 LINE",
"684 546 LINE",
"607 546 LINE SMOOTH",
"366 546 OFFCURVE",
"88 370 OFFCURVE",
"88 54 CURVE SMOOTH",
"88 0 LINE"
);
},
{
closed = 1;
nodes = (
"195 0 LINE SMOOTH",
"302 0 OFFCURVE",
"342 55 OFFCURVE",
"342 145 CURVE SMOOTH",
"342 536 LINE",
"88 536 LINE",
"88 466 LINE",
"257 466 LINE",
"257 130 LINE SMOOTH",
"257 85 OFFCURVE",
"230 69 OFFCURVE",
"205 69 CURVE SMOOTH",
"152 69 LINE",
"88 0 LINE"
);
}
);
width = 772;
}
);
unicode = A90A;
},
{
glyphname = uniA90B;
lastChange = "2017-02-23 22:13:51 +0000";
layers = (
{
anchors = (
{
name = bottom;
position = "{385, 0}";
},
{
name = bottom_alt;
position = "{175, 0}";
},
{
name = top;
position = "{385, 605}";
}
);
layerId = UUID0;
paths = (
{
closed = 1;
nodes = (
"620 -10 OFFCURVE",
"684 50 OFFCURVE",
"684 264 CURVE SMOOTH",
"684 487 OFFCURVE",
"618 546 OFFCURVE",
"390 546 CURVE SMOOTH",
"189 546 OFFCURVE",
"88 504 OFFCURVE",
"88 301 CURVE SMOOTH",
"88 288 OFFCURVE",
"88 271 OFFCURVE",
"89 257 CURVE",
"633 257 LINE",
"633 326 LINE",
"174 326 LINE",
"182 438 OFFCURVE",
"217 476 OFFCURVE",
"387 476 CURVE SMOOTH",
"562 476 OFFCURVE",
"595 423 OFFCURVE",
"595 264 CURVE SMOOTH",
"595 100 OFFCURVE",
"569 60 OFFCURVE",
"388 60 CURVE SMOOTH",
"237 60 OFFCURVE",
"173 88 OFFCURVE",
"173 205 CURVE",
"88 205 LINE",
"88 22 OFFCURVE",
"187 -10 OFFCURVE",
"385 -10 CURVE SMOOTH"
);
}
);
width = 772;
}
);
unicode = A90B;
},
{
glyphname = uniA90C;
lastChange = "2017-02-23 22:13:51 +0000";
layers = (
{
anchors = (
{
name = bottom;
position = "{385, 0}";
},
{
name = bottom_alt;
position = "{175, 0}";
},
{
name = top;
position = "{385, 605}";
}
);
layerId = UUID0;
paths = (
{
closed = 1;
nodes = (
"174 0 LINE",
"174 53 LINE SMOOTH",
"174 362 OFFCURVE",
"434 479 OFFCURVE",
"598 479 CURVE",
"598 0 LINE",
"684 0 LINE",
"684 546 LINE",
"607 546 LINE SMOOTH",
"474 546 OFFCURVE",
"326 490 OFFCURVE",
"233 391 CURVE SMOOTH",
"204 360 OFFCURVE",
"185 334 OFFCURVE",
"170 281 CURVE",
"165 282 LINE",
"168 299 OFFCURVE",
"174 334 OFFCURVE",
"174 391 CURVE SMOOTH",
"174 536 LINE",
"88 536 LINE",
"88 0 LINE"
);
},
{
closed = 1;
nodes = (
"633 207 LINE",
"633 276 LINE",
"203 276 LINE",
"127 207 LINE"
);
}
);
width = 772;
}
);
unicode = A90C;
},
{
glyphname = uniA90D;
lastChange = "2017-02-23 22:13:51 +0000";
layers = (
{
anchors = (
{
name = bottom;
position = "{385, 0}";
},
{
name = bottom_alt;
position = "{175, 0}";
},
{
name = top;
position = "{385, 605}";
}
);
layerId = UUID0;
paths = (
{
closed = 1;
nodes = (
"587 -10 OFFCURVE",
"684 31 OFFCURVE",
"684 208 CURVE",
"600 208 LINE",
"600 95 OFFCURVE",
"545 60 OFFCURVE",
"385 60 CURVE SMOOTH",
"210 60 OFFCURVE",
"177 113 OFFCURVE",
"177 272 CURVE SMOOTH",
"177 436 OFFCURVE",
"203 476 OFFCURVE",
"384 476 CURVE SMOOTH",
"526 476 OFFCURVE",
"601 445 OFFCURVE",
"601 331 CURVE",
"684 331 LINE",
"684 512 OFFCURVE",
"585 546 OFFCURVE",
"387 546 CURVE SMOOTH",
"149 546 OFFCURVE",
"88 489 OFFCURVE",
"88 272 CURVE SMOOTH",
"88 49 OFFCURVE",
"154 -10 OFFCURVE",
"382 -10 CURVE SMOOTH"
);
}
);
width = 772;
}
);
unicode = A90D;
},
{
glyphname = uniA90E;
lastChange = "2017-02-23 22:13:51 +0000";
layers = (
{
anchors = (
{
name = bottom;
position = "{385, 0}";
},
{
name = bottom_alt;
position = "{175, 0}";
},
{
name = top;
position = "{385, 605}";
}
);
layerId = UUID0;
paths = (
{
closed = 1;
nodes = (
"365 0 LINE",
"365 69 LINE",
"205 69 LINE",
"271 170 LINE",
"284 162 OFFCURVE",
"323 143 OFFCURVE",
"367 143 CURVE SMOOTH",
"422 143 OFFCURVE",
"489 179 OFFCURVE",
"489 253 CURVE SMOOTH",
"489 318 OFFCURVE",
"434 345 OFFCURVE",
"388 345 CURVE SMOOTH",
"333 345 OFFCURVE",
"298 321 OFFCURVE",
"243 242 CURVE",
"186 279 OFFCURVE",
"174 299 OFFCURVE",
"174 364 CURVE SMOOTH",
"174 435 OFFCURVE",
"226 476 OFFCURVE",
"388 476 CURVE SMOOTH",
"554 476 OFFCURVE",
"598 436 OFFCURVE",
"598 272 CURVE SMOOTH",
"598 0 LINE",
"684 0 LINE",
"684 272 LINE SMOOTH",
"684 494 OFFCURVE",
"637 546 OFFCURVE",
"385 546 CURVE SMOOTH",
"179 546 OFFCURVE",
"88 488 OFFCURVE",
"88 367 CURVE SMOOTH",
"88 269 OFFCURVE",
"154 230 OFFCURVE",
"212 196 CURVE",
"88 13 LINE",
"88 0 LINE"
);
},
{
closed = 1;
nodes = (
"343 193 OFFCURVE",
"306 207 OFFCURVE",
"300 213 CURVE",
"340 273 OFFCURVE",
"358 294 OFFCURVE",
"385 294 CURVE SMOOTH",
"409 294 OFFCURVE",
"429 277 OFFCURVE",
"429 246 CURVE SMOOTH",
"429 212 OFFCURVE",
"402 193 OFFCURVE",
"366 193 CURVE SMOOTH"
);
}
);
width = 772;
}
);
unicode = A90E;
},
{
glyphname = uniA90F;
lastChange = "2017-02-23 22:13:51 +0000";
layers = (
{
anchors = (
{
name = bottom;
position = "{385, 0}";
},
{
name = bottom_alt;
position = "{175, 0}";
},
{
name = top;
position = "{385, 605}";
}
);
layerId = UUID0;
paths = (
{
closed = 1;
nodes = (
"212 -4 OFFCURVE",
"259 31 OFFCURVE",
"259 147 CURVE SMOOTH",
"259 308 LINE",
"409 308 OFFCURVE",
"564 176 OFFCURVE",
"598 0 CURVE",
"684 0 LINE",
"684 536 LINE",
"88 536 LINE",
"88 467 LINE",
"598 467 LINE",
"598 261 LINE SMOOTH",
"598 204 OFFCURVE",
"604 169 OFFCURVE",
"607 152 CURVE",
"602 151 LINE",
"561 289 OFFCURVE",
"402 375 OFFCURVE",
"266 375 CURVE SMOOTH",
"173 375 LINE",
"173 140 LINE SMOOTH",
"173 86 OFFCURVE",
"130 65 OFFCURVE",
"88 65 CURVE",
"88 -4 LINE"
);
}
);
width = 772;
}
);
unicode = A90F;
},
{
glyphname = uniA910;
lastChange = "2017-02-23 22:13:51 +0000";
layers = (
{
anchors = (
{
name = bottom;
position = "{385, 0}";
},
{
name = bottom_alt;
position = "{175, -118}";
},
{
name = top;
position = "{385, 605}";
}
);
layerId = UUID0;
paths = (
{
closed = 1;
nodes = (
"174 -240 LINE",
"174 53 LINE SMOOTH",
"174 333 OFFCURVE",
"404 476 OFFCURVE",
"528 476 CURVE SMOOTH",
"576 476 OFFCURVE",
"598 443 OFFCURVE",
"598 407 CURVE SMOOTH",
"598 310 OFFCURVE",
"539 261 OFFCURVE",
"468 220 CURVE",
"569 69 LINE",
"407 69 LINE",
"407 0 LINE",
"684 0 LINE",
"684 13 LINE",
"550 212 LINE",
"576 224 OFFCURVE",
"684 302 OFFCURVE",
"684 410 CURVE SMOOTH",
"684 469 OFFCURVE",
"663 546 OFFCURVE",
"542 546 CURVE SMOOTH",
"417 546 OFFCURVE",
"311 473 OFFCURVE",
"233 391 CURVE SMOOTH",
"204 360 OFFCURVE",
"185 334 OFFCURVE",
"170 281 CURVE",
"165 282 LINE",
"168 299 OFFCURVE",
"174 334 OFFCURVE",
"174 391 CURVE SMOOTH",
"174 536 LINE",
"88 536 LINE",
"88 -240 LINE"
);
}
);
width = 772;
}
);
unicode = A910;
},
{
glyphname = uniA911;
lastChange = "2017-02-23 22:13:51 +0000";
layers = (
{
anchors = (
{
name = bottom;
position = "{385, 19}";
},
{
name = bottom_alt;
position = "{175, -220}";
},
{
name = top;
position = "{385, 605}";
}
);
layerId = UUID0;
paths = (
{
closed = 1;
nodes = (
"613 -240 OFFCURVE",
"668 -211 OFFCURVE",
"668 -91 CURVE",
"580 -91 LINE",
"580 -157 OFFCURVE",
"541 -170 OFFCURVE",
"374 -170 CURVE SMOOTH",
"210 -170 OFFCURVE",
"178 -137 OFFCURVE",
"178 0 CURVE SMOOTH",
"178 14 OFFCURVE",
"177 27 OFFCURVE",
"174 44 CURVE",
"178 46 LINE",
"211 -3 OFFCURVE",
"252 -10 OFFCURVE",
"390 -10 CURVE SMOOTH",
"623 -10 OFFCURVE",
"684 57 OFFCURVE",
"684 272 CURVE SMOOTH",
"684 494 OFFCURVE",
"617 546 OFFCURVE",
"385 546 CURVE SMOOTH",
"187 546 OFFCURVE",
"89 505 OFFCURVE",
"89 329 CURVE",
"172 329 LINE",
"172 443 OFFCURVE",
"246 476 OFFCURVE",
"388 476 CURVE SMOOTH",
"557 476 OFFCURVE",
"595 436 OFFCURVE",
"595 272 CURVE SMOOTH",
"595 113 OFFCURVE",
"577 60 OFFCURVE",
"387 60 CURVE SMOOTH",
"226 60 OFFCURVE",
"174 91 OFFCURVE",
"174 206 CURVE",
"88 206 LINE",
"88 34 LINE SMOOTH",
"88 -188 OFFCURVE",
"125 -240 OFFCURVE",
"373 -240 CURVE SMOOTH"
);
}
);
width = 772;
}
);
unicode = A911;
},
{
glyphname = uniA912;
lastChange = "2017-02-23 22:13:51 +0000";
layers = (
{
anchors = (
{
name = bottom;
position = "{385, 0}";
},
{
name = bottom_alt;
position = "{175, 0}";
},
{
name = top;
position = "{385, 605}";
}
);
layerId = UUID0;
paths = (
{
closed = 1;
nodes = (
"637 -10 OFFCURVE",
"684 52 OFFCURVE",
"684 142 CURVE SMOOTH",
"684 242 OFFCURVE",
"608 336 OFFCURVE",
"450 336 CURVE SMOOTH",
"337 336 OFFCURVE",
"243 290 OFFCURVE",
"170 165 CURVE",
"165 166 LINE",
"168 183 OFFCURVE",
"174 218 OFFCURVE",
"174 275 CURVE SMOOTH",
"174 462 LINE",
"670 356 LINE",
"670 429 LINE",
"174 536 LINE",
"88 536 LINE",
"88 0 LINE",
"174 0 LINE",
"174 113 OFFCURVE",
"298 269 OFFCURVE",
"450 269 CURVE SMOOTH",
"501 269 OFFCURVE",
"553 254 OFFCURVE",
"582 217 CURVE",
"572 221 OFFCURVE",
"559 224 OFFCURVE",
"546 224 CURVE SMOOTH",
"459 224 OFFCURVE",
"415 176 OFFCURVE",
"415 107 CURVE SMOOTH",
"415 39 OFFCURVE",
"447 -10 OFFCURVE",
"548 -10 CURVE SMOOTH"
);
},
{
closed = 1;
nodes = (
"519 49 OFFCURVE",
"486 65 OFFCURVE",
"486 107 CURVE SMOOTH",
"486 147 OFFCURVE",
"516 165 OFFCURVE",
"547 165 CURVE SMOOTH",
"575 165 OFFCURVE",
"597 152 OFFCURVE",
"607 146 CURVE",
"607 140 OFFCURVE",
"608 134 OFFCURVE",
"608 127 CURVE SMOOTH",
"608 80 OFFCURVE",
"577 49 OFFCURVE",
"547 49 CURVE SMOOTH"
);
}
);
width = 772;
}
);
unicode = A912;
},
{
glyphname = uniA913;
lastChange = "2017-02-23 22:13:51 +0000";
layers = (
{
anchors = (
{
name = bottom;
position = "{385, 0}";
},
{
name = bottom_alt;
position = "{175, 0}";
},
{
name = top;
position = "{385, 781}";
}
);
layerId = UUID0;
paths = (
{
closed = 1;
nodes = (
"628 -10 OFFCURVE",
"684 49 OFFCURVE",
"684 272 CURVE SMOOTH",
"684 714 LINE",
"598 714 LINE",
"598 272 LINE SMOOTH",
"598 107 OFFCURVE",
"563 60 OFFCURVE",
"385 60 CURVE SMOOTH",
"210 60 OFFCURVE",
"173 113 OFFCURVE",
"173 272 CURVE SMOOTH",
"173 536 LINE",
"88 536 LINE",
"88 272 LINE SMOOTH",
"88 49 OFFCURVE",
"154 -10 OFFCURVE",
"382 -10 CURVE"
);
},
{
closed = 1;
nodes = (
"642 467 LINE",
"643 481 OFFCURVE",
"643 496 OFFCURVE",
"643 509 CURVE",
"598 536 LINE",
"443 536 LINE",
"443 467 LINE"
);
}
);
width = 772;
}
);
unicode = A913;
},
{
glyphname = uniA914;
lastChange = "2017-02-23 22:13:51 +0000";
layers = (
{
anchors = (
{
name = bottom;
position = "{385, 19}";
},
{
name = bottom_alt;
position = "{175, -220}";
},
{
name = top;
position = "{385, 605}";
}
);
layerId = UUID0;
paths = (
{
closed = 1;
nodes = (
"525 -240 LINE",
"525 -169 LINE",
"387 -169 LINE SMOOTH",
"223 -169 OFFCURVE",
"178 -137 OFFCURVE",
"178 -37 CURVE SMOOTH",
"178 11 OFFCURVE",
"174 23 OFFCURVE",
"163 51 CURVE",
"167 52 LINE",
"191 3 OFFCURVE",
"259 -10 OFFCURVE",
"383 -10 CURVE SMOOTH",
"623 -10 OFFCURVE",
"684 48 OFFCURVE",
"684 145 CURVE SMOOTH",
"684 235 OFFCURVE",
"656 278 OFFCURVE",
"498 304 CURVE SMOOTH",
"314 334 LINE SMOOTH",
"213 350 OFFCURVE",
"187 366 OFFCURVE",
"187 406 CURVE SMOOTH",
"187 438 OFFCURVE",
"208 475 OFFCURVE",
"384 475 CURVE SMOOTH",
"526 475 OFFCURVE",
"591 445 OFFCURVE",
"591 351 CURVE",
"674 351 LINE",
"674 509 OFFCURVE",
"585 546 OFFCURVE",
"387 546 CURVE SMOOTH",
"149 546 OFFCURVE",
"98 488 OFFCURVE",
"98 397 CURVE SMOOTH",
"98 331 OFFCURVE",
"116 290 OFFCURVE",
"251 267 CURVE SMOOTH",
"458 232 LINE SMOOTH",
"559 215 OFFCURVE",
"595 197 OFFCURVE",
"595 146 CURVE SMOOTH",
"595 95 OFFCURVE",
"570 60 OFFCURVE",
"387 60 CURVE SMOOTH",
"238 60 OFFCURVE",
"178 89 OFFCURVE",
"178 144 CURVE",
"257 144 LINE",
"257 213 LINE",
"88 213 LINE",
"88 34 LINE SMOOTH",
"88 -188 OFFCURVE",
"139 -240 OFFCURVE",
"387 -240 CURVE SMOOTH"
);
}
);
width = 772;
}
);
unicode = A914;
},
{
glyphname = uniA915;
lastChange = "2017-02-23 22:13:51 +0000";
layers = (
{
anchors = (
{
name = bottom;
position = "{385, 0}";
},
{
name = bottom_alt;
position = "{175, 0}";
},
{
name = top;
position = "{385, 605}";
}
);
layerId = UUID0;
paths = (
{
closed = 1;
nodes = (
"587 -10 OFFCURVE",
"684 39 OFFCURVE",
"684 208 CURVE",
"600 208 LINE",
"600 93 OFFCURVE",
"545 60 OFFCURVE",
"385 60 CURVE SMOOTH",
"210 60 OFFCURVE",
"177 113 OFFCURVE",
"177 272 CURVE SMOOTH",
"177 436 OFFCURVE",
"203 475 OFFCURVE",
"384 475 CURVE SMOOTH",
"512 475 OFFCURVE",
"579 451 OFFCURVE",
"591 375 CURVE",
"151 304 LINE",
"163 233 LINE",
"684 318 LINE",
"679 503 OFFCURVE",
"597 546 OFFCURVE",
"387 546 CURVE SMOOTH",
"149 546 OFFCURVE",
"88 489 OFFCURVE",
"88 272 CURVE SMOOTH",
"88 49 OFFCURVE",
"154 -10 OFFCURVE",
"382 -10 CURVE SMOOTH"
);
}
);
width = 772;
}
);
unicode = A915;
},
{
glyphname = uniA916;
lastChange = "2017-02-23 22:13:51 +0000";
layers = (
{
anchors = (
{
name = bottom;
position = "{385, 0}";
},
{
name = bottom_alt;
position = "{175, 0}";
},
{
name = top;
position = "{385, 781}";
}
);
layerId = UUID0;
paths = (
{
closed = 1;
nodes = (
"717 65 LINE",
"675 65 OFFCURVE",
"664 83 OFFCURVE",
"664 137 CURVE SMOOTH",
"664 515 LINE",
"585 515 LINE SMOOTH",
"452 515 OFFCURVE",
"326 460 OFFCURVE",
"233 361 CURVE SMOOTH",
"204 330 OFFCURVE",
"185 304 OFFCURVE",
"170 251 CURVE",
"165 252 LINE",
"168 269 OFFCURVE",
"174 304 OFFCURVE",
"174 361 CURVE SMOOTH",
"174 494 LINE SMOOTH",
"174 631 OFFCURVE",
"220 663 OFFCURVE",
"388 663 CURVE SMOOTH",
"535 663 OFFCURVE",
"572 648 OFFCURVE",
"572 595 CURVE",
"663 595 LINE",
"663 706 OFFCURVE",
"589 734 OFFCURVE",
"387 734 CURVE SMOOTH",
"139 734 OFFCURVE",
"88 682 OFFCURVE",
"88 460 CURVE SMOOTH",
"88 0 LINE",
"174 0 LINE",
"174 23 LINE SMOOTH",
"174 332 OFFCURVE",
"414 445 OFFCURVE",
"578 445 CURVE",
"578 124 LINE SMOOTH",
"578 31 OFFCURVE",
"593 -4 OFFCURVE",
"717 -4 CURVE"
);
}
);
width = 772;
}
);
unicode = A916;
},
{
glyphname = uniA917;
lastChange = "2017-02-23 22:13:51 +0000";
layers = (
{
anchors = (
{
name = bottom;
position = "{385, 0}";
},
{
name = bottom_alt;
position = "{175, 0}";
},
{
name = top;
position = "{385, 605}";
}
);
layerId = UUID0;
paths = (
{
closed = 1;
nodes = (
"628 -10 OFFCURVE",
"684 49 OFFCURVE",
"684 272 CURVE SMOOTH",
"684 536 LINE",
"598 536 LINE",
"598 272 LINE",
"598 107 OFFCURVE",
"563 60 OFFCURVE",
"385 60 CURVE SMOOTH",
"210 60 OFFCURVE",
"174 113 OFFCURVE",
"174 272 CURVE SMOOTH",
"174 536 LINE",
"88 536 LINE",
"88 272 LINE",
"88 49 OFFCURVE",
"154 -10 OFFCURVE",
"382 -10 CURVE SMOOTH"
);
},
{
closed = 1;
nodes = (
"383 266 LINE",
"600 106 LINE",
"600 198 LINE",
"383 358 LINE",
"174 198 LINE",
"174 106 LINE"
);
}
);
width = 772;
}
);
unicode = A917;
},
{
glyphname = uniA918;
lastChange = "2017-02-23 22:13:51 +0000";
layers = (
{
anchors = (
{
name = bottom;
position = "{385, 0}";
},
{
name = bottom_alt;
position = "{175, 0}";
},
{
name = top;
position = "{385, 605}";
}
);
layerId = UUID0;
paths = (
{
closed = 1;
nodes = (
"539 0 LINE SMOOTH",
"629 0 OFFCURVE",
"684 24 OFFCURVE",
"684 131 CURVE SMOOTH",
"684 259 LINE",
"632 259 LINE SMOOTH",
"482 259 OFFCURVE",
"361 162 OFFCURVE",
"278 69 CURVE",
"187 69 LINE",
"654 523 LINE",
"654 536 LINE",
"108 536 LINE",
"108 464 LINE",
"485 464 LINE",
"88 76 LINE",
"88 0 LINE"
);
},
{
closed = 1;
nodes = (
"430 119 OFFCURVE",
"499 180 OFFCURVE",
"598 184 CURVE",
"598 124 LINE SMOOTH",
"598 99 OFFCURVE",
"586 69 OFFCURVE",
"541 69 CURVE SMOOTH",
"372 69 LINE"
);
}
);
width = 772;
}
);
unicode = A918;
},
{
glyphname = uniA919;
lastChange = "2017-02-23 22:13:51 +0000";
layers = (
{
anchors = (
{
name = bottom;
position = "{385, 0}";
},
{
name = bottom_alt;
position = "{175, 0}";
},
{
name = top;
position = "{385, 605}";
}
);
layerId = UUID0;
paths = (
{
closed = 1;
nodes = (
"637 -10 OFFCURVE",
"684 42 OFFCURVE",
"684 152 CURVE SMOOTH",
"684 546 LINE",
"607 546 LINE SMOOTH",
"474 546 OFFCURVE",
"326 490 OFFCURVE",
"233 391 CURVE SMOOTH",
"204 360 OFFCURVE",
"185 334 OFFCURVE",
"170 281 CURVE",
"165 282 LINE",
"168 299 OFFCURVE",
"174 334 OFFCURVE",
"174 391 CURVE SMOOTH",
"174 536 LINE",
"88 536 LINE",
"88 0 LINE",
"174 0 LINE",
"174 53 LINE SMOOTH",
"174 362 OFFCURVE",
"434 479 OFFCURVE",
"598 479 CURVE",
"598 137 LINE SMOOTH",
"598 72 OFFCURVE",
"577 49 OFFCURVE",
"547 49 CURVE SMOOTH",
"519 49 OFFCURVE",
"486 65 OFFCURVE",
"486 107 CURVE SMOOTH",
"486 147 OFFCURVE",
"516 165 OFFCURVE",
"547 165 CURVE SMOOTH",
"583 165 OFFCURVE",
"605 149 OFFCURVE",
"612 145 CURVE",
"612 206 LINE",
"605 210 OFFCURVE",
"580 224 OFFCURVE",
"546 224 CURVE SMOOTH",
"448 224 OFFCURVE",
"415 176 OFFCURVE",
"415 107 CURVE SMOOTH",
"415 39 OFFCURVE",
"447 -10 OFFCURVE",
"548 -10 CURVE SMOOTH"
);
}
);
width = 772;
}
);
unicode = A919;
},
{
glyphname = uniA91A;
lastChange = "2017-02-23 22:13:51 +0000";
layers = (
{
anchors = (
{
name = bottom;
position = "{385, 0}";
},
{
name = bottom_alt;
position = "{175, -10}";
},
{
name = top;
position = "{385, 605}";
}
);
layerId = UUID0;
paths = (
{
closed = 1;
nodes = (
"520 -240 LINE SMOOTH",
"637 -240 OFFCURVE",
"684 -175 OFFCURVE",
"684 -65 CURVE SMOOTH",
"684 546 LINE",
"607 546 LINE SMOOTH",
"474 546 OFFCURVE",
"325 490 OFFCURVE",
"232 391 CURVE SMOOTH",
"203 360 OFFCURVE",
"184 334 OFFCURVE",
"169 281 CURVE",
"164 282 LINE",
"167 299 OFFCURVE",
"173 334 OFFCURVE",
"173 391 CURVE SMOOTH",
"173 536 LINE",
"88 536 LINE",
"88 0 LINE",
"173 0 LINE",
"173 53 LINE SMOOTH",
"173 362 OFFCURVE",
"434 479 OFFCURVE",
"598 479 CURVE",
"598 -83 LINE SMOOTH",
"598 -148 OFFCURVE",
"562 -171 OFFCURVE",
"527 -171 CURVE SMOOTH",
"494 -171 LINE",
"494 -240 LINE"
);
}
);
width = 772;
}
);
unicode = A91A;
},
{
glyphname = uniA91B;
lastChange = "2017-02-23 22:13:51 +0000";
layers = (
{
anchors = (
{
name = bottom;
position = "{385, 0}";
},
{
name = bottom_alt;
position = "{175, 0}";
},
{
name = top;
position = "{385, 605}";
}
);
layerId = UUID0;
paths = (
{
closed = 1;
nodes = (
"385 -10 OFFCURVE",
"448 36 OFFCURVE",
"448 160 CURVE SMOOTH",
"448 375 LINE SMOOTH",
"448 448 OFFCURVE",
"488 474 OFFCURVE",
"541 474 CURVE SMOOTH",
"603 474 OFFCURVE",
"635 449 OFFCURVE",
"635 282 CURVE SMOOTH",
"635 0 LINE",
"724 0 LINE",
"724 282 LINE SMOOTH",
"724 494 OFFCURVE",
"682 545 OFFCURVE",
"542 545 CURVE SMOOTH",
"424 545 OFFCURVE",
"363 499 OFFCURVE",
"363 375 CURVE SMOOTH",
"363 160 LINE SMOOTH",
"363 87 OFFCURVE",
"321 61 OFFCURVE",
"274 61 CURVE SMOOTH",
"206 61 OFFCURVE",
"177 84 OFFCURVE",
"177 253 CURVE SMOOTH",
"177 535 LINE",
"88 535 LINE",
"88 253 LINE SMOOTH",
"88 41 OFFCURVE",
"127 -10 OFFCURVE",
"267 -10 CURVE SMOOTH"
);
}
);
width = 812;
}
);
unicode = A91B;
},
{
glyphname = uniA91C;
lastChange = "2017-02-23 22:13:51 +0000";
layers = (
{
anchors = (
{
name = bottom;
position = "{385, 19}";
},
{
name = bottom_alt;
position = "{175, -220}";
},
{
name = top;
position = "{385, 605}";
}
);
layerId = UUID0;
paths = (
{
closed = 1;
nodes = (
"653 -240 OFFCURVE",
"724 -188 OFFCURVE",
"724 34 CURVE SMOOTH",
"724 535 LINE",
"635 535 LINE",
"635 253 LINE SMOOTH",
"635 77 OFFCURVE",
"602 61 OFFCURVE",
"534 61 CURVE SMOOTH",
"487 61 OFFCURVE",
"449 87 OFFCURVE",
"449 160 CURVE SMOOTH",
"449 375 LINE SMOOTH",
"449 499 OFFCURVE",
"392 545 OFFCURVE",
"274 545 CURVE SMOOTH",
"134 545 OFFCURVE",
"88 494 OFFCURVE",
"88 282 CURVE SMOOTH",
"88 0 LINE",
"177 0 LINE",
"177 282 LINE SMOOTH",
"177 458 OFFCURVE",
"213 474 OFFCURVE",
"275 474 CURVE SMOOTH",
"328 474 OFFCURVE",
"364 448 OFFCURVE",
"364 375 CURVE SMOOTH",
"364 160 LINE SMOOTH",
"364 36 OFFCURVE",
"423 -10 OFFCURVE",
"541 -10 CURVE SMOOTH",
"584 -10 OFFCURVE",
"614 3 OFFCURVE",
"634 46 CURVE",
"638 44 LINE",
"635 27 OFFCURVE",
"634 14 OFFCURVE",
"634 -10 CURVE SMOOTH",
"634 -137 OFFCURVE",
"572 -166 OFFCURVE",
"404 -166 CURVE SMOOTH",
"237 -166 OFFCURVE",
"181 -156 OFFCURVE",
"181 -91 CURVE",
"90 -91 LINE",
"90 -213 OFFCURVE",
"153 -240 OFFCURVE",
"405 -240 CURVE SMOOTH"
);
}
);
width = 812;
}
);
unicode = A91C;
},
{
glyphname = uniA91D;
lastChange = "2017-02-23 22:13:51 +0000";
layers = (
{
anchors = (
{
name = bottom;
position = "{385, 0}";
},
{
name = bottom_alt;
position = "{175, 0}";
},
{
name = top;
position = "{385, 781}";
}
);
layerId = UUID0;
paths = (
{
closed = 1;
nodes = (
"628 -10 OFFCURVE",
"684 49 OFFCURVE",
"684 272 CURVE SMOOTH",
"684 536 LINE",
"598 536 LINE",
"598 272 LINE SMOOTH",
"598 107 OFFCURVE",
"563 60 OFFCURVE",
"385 60 CURVE SMOOTH",
"210 60 OFFCURVE",
"174 113 OFFCURVE",
"174 272 CURVE SMOOTH",
"174 714 LINE",
"88 714 LINE",
"88 272 LINE SMOOTH",
"88 49 OFFCURVE",
"154 -10 OFFCURVE",
"382 -10 CURVE"
);
},
{
closed = 1;
nodes = (
"329 466 LINE",
"329 536 LINE",
"174 536 LINE",
"131 509 LINE",
"131 496 OFFCURVE",
"131 480 OFFCURVE",
"132 466 CURVE"
);
}
);
width = 772;
}
);
unicode = A91D;
},
{
glyphname = uniA91E;
lastChange = "2017-02-23 22:13:51 +0000";
layers = (
{
anchors = (
{
name = bottom;
position = "{385, 19}";
},
{
name = bottom_alt;
position = "{175, -220}";
},
{
name = top;
position = "{385, 605}";
}
);
layerId = UUID0;
paths = (
{
closed = 1;
nodes = (
"633 -240 OFFCURVE",
"684 -188 OFFCURVE",
"684 34 CURVE SMOOTH",
"684 208 LINE",
"598 208 LINE",
"598 95 OFFCURVE",
"545 60 OFFCURVE",
"385 60 CURVE SMOOTH",
"210 60 OFFCURVE",
"177 113 OFFCURVE",
"177 272 CURVE SMOOTH",
"177 436 OFFCURVE",
"203 476 OFFCURVE",
"384 476 CURVE SMOOTH",
"526 476 OFFCURVE",
"600 445 OFFCURVE",
"600 331 CURVE",
"683 331 LINE",
"683 509 OFFCURVE",
"585 546 OFFCURVE",
"387 546 CURVE SMOOTH",
"139 546 OFFCURVE",
"88 494 OFFCURVE",
"88 272 CURVE SMOOTH",
"88 49 OFFCURVE",
"154 -10 OFFCURVE",
"382 -10 CURVE SMOOTH",
"520 -10 OFFCURVE",
"561 -3 OFFCURVE",
"594 46 CURVE",
"598 44 LINE",
"595 27 OFFCURVE",
"594 14 OFFCURVE",
"594 0 CURVE SMOOTH",
"594 -137 OFFCURVE",
"552 -170 OFFCURVE",
"384 -170 CURVE SMOOTH",
"217 -170 OFFCURVE",
"188 -153 OFFCURVE",
"188 -91 CURVE",
"100 -91 LINE",
"100 -211 OFFCURVE",
"133 -240 OFFCURVE",
"385 -240 CURVE SMOOTH"
);
}
);
width = 772;
}
);
unicode = A91E;
},
{
glyphname = uniA91F;
lastChange = "2017-02-23 22:13:51 +0000";
layers = (
{
anchors = (
{
name = bottom;
position = "{385, 0}";
},
{
name = bottom_alt;
position = "{175, -10}";
},
{
name = top;
position = "{385, 605}";
}
);
layerId = UUID0;
paths = (
{
closed = 1;
nodes = (
"520 -240 LINE SMOOTH",
"637 -240 OFFCURVE",
"684 -175 OFFCURVE",
"684 -65 CURVE SMOOTH",
"684 536 LINE",
"598 536 LINE",
"598 483 LINE SMOOTH",
"598 174 OFFCURVE",
"338 69 OFFCURVE",
"174 69 CURVE",
"174 130 LINE",
"267 213 OFFCURVE",
"349 335 OFFCURVE",
"349 485 CURVE SMOOTH",
"349 536 LINE",
"232 536 LINE SMOOTH",
"125 536 OFFCURVE",
"88 481 OFFCURVE",
"88 391 CURVE SMOOTH",
"88 -1 LINE",
"167 -1 LINE SMOOTH",
"300 -1 OFFCURVE",
"446 46 OFFCURVE",
"539 145 CURVE SMOOTH",
"568 176 OFFCURVE",
"587 202 OFFCURVE",
"602 255 CURVE",
"607 254 LINE",
"604 237 OFFCURVE",
"598 202 OFFCURVE",
"598 145 CURVE SMOOTH",
"598 -83 LINE SMOOTH",
"598 -148 OFFCURVE",
"562 -171 OFFCURVE",
"527 -171 CURVE SMOOTH",
"494 -171 LINE",
"494 -240 LINE"
);
},
{
closed = 1;
nodes = (
"174 406 LINE SMOOTH",
"174 451 OFFCURVE",
"200 467 OFFCURVE",
"225 467 CURVE SMOOTH",
"272 467 LINE",
"268 368 OFFCURVE",
"224 281 OFFCURVE",
"174 223 CURVE"
);
}
);
width = 772;
}
);
unicode = A91F;
},
{
glyphname = uniA920;
lastChange = "2017-02-23 22:13:51 +0000";
layers = (
{
anchors = (
{
name = bottom;
position = "{385, 0}";
},
{
name = bottom_alt;
position = "{175, 0}";
},
{
name = top;
position = "{385, 605}";
}
);
layerId = UUID0;
paths = (
{
closed = 1;
nodes = (
"633 -10 OFFCURVE",
"684 42 OFFCURVE",
"684 264 CURVE SMOOTH",
"684 536 LINE",
"586 536 LINE",
"384 344 LINE",
"186 536 LINE",
"88 536 LINE",
"88 251 LINE",
"174 251 LINE",
"174 444 LINE",
"373 252 LINE",
"395 252 LINE",
"597 456 LINE",
"597 230 LINE SMOOTH",
"597 93 OFFCURVE",
"552 64 OFFCURVE",
"384 64 CURVE SMOOTH",
"237 64 OFFCURVE",
"182 78 OFFCURVE",
"175 129 CURVE",
"89 129 LINE",
"105 17 OFFCURVE",
"183 -10 OFFCURVE",
"385 -10 CURVE SMOOTH"
);
}
);
width = 772;
}
);
unicode = A920;
},
{
glyphname = uniA921;
lastChange = "2017-02-23 22:13:51 +0000";
layers = (
{
anchors = (
{
name = bottom;
position = "{385, 0}";
},
{
name = bottom_alt;
position = "{175, 0}";
},
{
name = top;
position = "{385, 781}";
}
);
layerId = UUID0;
paths = (
{
closed = 1;
nodes = (
"174 0 LINE",
"174 399 LINE",
"598 0 LINE",
"684 0 LINE",
"684 460 LINE SMOOTH",
"684 682 OFFCURVE",
"633 734 OFFCURVE",
"385 734 CURVE SMOOTH",
"183 734 OFFCURVE",
"105 707 OFFCURVE",
"89 595 CURVE",
"182 595 LINE",
"189 646 OFFCURVE",
"237 663 OFFCURVE",
"384 663 CURVE SMOOTH",
"552 663 OFFCURVE",
"598 631 OFFCURVE",
"598 494 CURVE SMOOTH",
"598 112 LINE",
"174 506 LINE",
"88 506 LINE",
"88 0 LINE"
);
}
);
width = 772;
}
);
unicode = A921;
},
{
glyphname = uniA922;
lastChange = "2017-02-23 22:13:51 +0000";
layers = (
{
anchors = (
{
name = bottom;
position = "{385, 0}";
},
{
name = bottom_alt;
position = "{175, 0}";
},
{
name = top;
position = "{385, 605}";
}
);
layerId = UUID0;
paths = (
{
closed = 1;
nodes = (
"585 -10 OFFCURVE",
"684 31 OFFCURVE",
"684 208 CURVE",
"600 208 LINE",
"600 90 OFFCURVE",
"545 60 OFFCURVE",
"385 60 CURVE SMOOTH",
"202 60 OFFCURVE",
"177 100 OFFCURVE",
"177 151 CURVE SMOOTH",
"177 210 OFFCURVE",
"211 244 OFFCURVE",
"314 244 CURVE",
"314 307 LINE",
"225 307 OFFCURVE",
"187 329 OFFCURVE",
"187 394 CURVE SMOOTH",
"187 431 OFFCURVE",
"208 476 OFFCURVE",
"384 476 CURVE SMOOTH",
"526 476 OFFCURVE",
"600 445 OFFCURVE",
"601 331 CURVE",
"684 331 LINE",
"684 509 OFFCURVE",
"585 546 OFFCURVE",
"387 546 CURVE SMOOTH",
"149 546 OFFCURVE",
"98 488 OFFCURVE",
"98 397 CURVE SMOOTH",
"98 327 OFFCURVE",
"117 293 OFFCURVE",
"198 275 CURVE",
"198 271 LINE",
"115 260 OFFCURVE",
"88 223 OFFCURVE",
"88 145 CURVE SMOOTH",
"88 48 OFFCURVE",
"149 -10 OFFCURVE",
"389 -10 CURVE SMOOTH"
);
}
);
width = 772;
}
);
unicode = A922;
},
{
glyphname = uniA923;
lastChange = "2017-02-23 22:13:51 +0000";
layers = (
{
anchors = (
{
name = bottom;
position = "{385, 0}";
},
{
name = bottom_alt;
position = "{175, 0}";
},
{
name = top;
position = "{385, 605}";
}
);
layerId = UUID0;
paths = (
{
closed = 1;
nodes = (
"165 -9 LINE SMOOTH",
"298 -9 OFFCURVE",
"449 46 OFFCURVE",
"542 145 CURVE SMOOTH",
"571 176 OFFCURVE",
"587 202 OFFCURVE",
"602 255 CURVE",
"607 254 LINE",
"604 237 OFFCURVE",
"598 202 OFFCURVE",
"598 145 CURVE SMOOTH",
"598 0 LINE",
"684 0 LINE",
"684 536 LINE",
"598 536 LINE",
"598 483 LINE SMOOTH",
"598 174 OFFCURVE",
"338 61 OFFCURVE",
"174 61 CURVE",
"174 536 LINE",
"88 536 LINE",
"88 -9 LINE"
);
}
);
width = 772;
}
);
unicode = A923;
},
{
glyphname = uniA924;
lastChange = "2017-02-23 22:13:51 +0000";
layers = (
{
anchors = (
{
name = bottom;
position = "{385, 0}";
},
{
name = bottom_alt;
position = "{175, 0}";
},
{
name = top;
position = "{385, 605}";
}
);
layerId = UUID0;
paths = (
{
closed = 1;
nodes = (
"623 -10 OFFCURVE",
"684 47 OFFCURVE",
"684 264 CURVE SMOOTH",
"684 487 OFFCURVE",
"618 546 OFFCURVE",
"390 546 CURVE SMOOTH",
"185 546 OFFCURVE",
"88 499 OFFCURVE",
"88 328 CURVE",
"172 328 LINE",
"172 440 OFFCURVE",
"227 476 OFFCURVE",
"387 476 CURVE SMOOTH",
"562 476 OFFCURVE",
"595 423 OFFCURVE",
"595 264 CURVE SMOOTH",
"595 100 OFFCURVE",
"569 61 OFFCURVE",
"388 61 CURVE SMOOTH",
"290 61 OFFCURVE",
"232 69 OFFCURVE",
"199 87 CURVE",
"606 406 LINE",
"560 463 LINE",
"90 92 LINE",
"124 4 OFFCURVE",
"216 -10 OFFCURVE",
"385 -10 CURVE SMOOTH"
);
}
);
width = 772;
}
);
unicode = A924;
},
{
glyphname = uniA925;
lastChange = "2017-02-23 22:13:51 +0000";
layers = (
{
anchors = (
{
name = bottom;
position = "{385, 0}";
},
{
name = bottom_alt;
position = "{175, 0}";
},
{
name = top;
position = "{385, 605}";
}
);
layerId = UUID0;
paths = (
{
closed = 1;
nodes = (
"628 -10 OFFCURVE",
"684 49 OFFCURVE",
"684 272 CURVE SMOOTH",
"684 494 OFFCURVE",
"620 546 OFFCURVE",
"387 546 CURVE SMOOTH",
"139 546 OFFCURVE",
"88 494 OFFCURVE",
"88 272 CURVE SMOOTH",
"88 49 OFFCURVE",
"154 -10 OFFCURVE",
"382 -10 CURVE SMOOTH"
);
},
{
closed = 1;
nodes = (
"210 60 OFFCURVE",
"177 113 OFFCURVE",
"177 272 CURVE SMOOTH",
"177 436 OFFCURVE",
"203 475 OFFCURVE",
"384 475 CURVE SMOOTH",
"559 475 OFFCURVE",
"595 431 OFFCURVE",
"595 272 CURVE SMOOTH",
"595 107 OFFCURVE",
"563 60 OFFCURVE",
"385 60 CURVE SMOOTH"
);
},
{
closed = 1;
nodes = (
"504 283 OFFCURVE",
"585 334 OFFCURVE",
"600 343 CURVE",
"600 412 LINE",
"578 400 OFFCURVE",
"486 352 OFFCURVE",
"383 352 CURVE SMOOTH",
"280 352 OFFCURVE",
"189 404 OFFCURVE",
"174 412 CURVE",
"174 343 LINE",
"184 336 OFFCURVE",
"255 283 OFFCURVE",
"383 283 CURVE"
);
}
);
width = 772;
}
);
unicode = A925;
},
{
glyphname = uniA926;
lastChange = "2017-02-23 22:13:51 +0000";
layers = (
{
anchors = (
{
name = _top;
position = "{-381, 566}";
}
);
layerId = UUID0;
paths = (
{
closed = 1;
nodes = (
"-358 611 OFFCURVE",
"-334 625 OFFCURVE",
"-334 663 CURVE SMOOTH",
"-334 702 OFFCURVE",
"-358 715 OFFCURVE",
"-385 715 CURVE SMOOTH",
"-414 715 OFFCURVE",
"-437 702 OFFCURVE",
"-437 663 CURVE SMOOTH",
"-437 625 OFFCURVE",
"-414 611 OFFCURVE",
"-385 611 CURVE SMOOTH"
);
}
);
width = 0;
}
);
unicode = A926;
},
{
glyphname = uniA927;
lastChange = "2017-02-23 22:13:51 +0000";
layers = (
{
anchors = (
{
name = _top;
position = "{-381, 566}";
}
);
layerId = UUID0;
paths = (
{
closed = 1;
nodes = (
"-178 637 LINE",
"-582 734 LINE",
"-582 660 LINE",
"-178 564 LINE"
);
}
);
width = 0;
}
);
unicode = A927;
},
{
glyphname = uniA928;
lastChange = "2017-02-23 22:13:51 +0000";
layers = (
{
anchors = (
{
name = _top;
position = "{-381, 566}";
}
);
layerId = UUID0;
paths = (
{
closed = 1;
nodes = (
"-380 661 LINE",
"-178 564 LINE",
"-178 637 LINE",
"-380 734 LINE",
"-582 637 LINE",
"-582 564 LINE"
);
}
);
width = 0;
}
);
unicode = A928;
},
{
glyphname = uniA929;
lastChange = "2017-02-23 22:13:51 +0000";
layers = (
{
anchors = (
{
name = _top;
position = "{-381, 566}";
}
);
layerId = UUID0;
paths = (
{
closed = 1;
nodes = (
"-158 581 OFFCURVE",
"-140 655 OFFCURVE",
"-140 760 CURVE",
"-221 760 LINE",
"-221 670 OFFCURVE",
"-254 644 OFFCURVE",
"-379 644 CURVE SMOOTH",
"-504 644 OFFCURVE",
"-535 670 OFFCURVE",
"-535 760 CURVE",
"-616 760 LINE",
"-616 661 OFFCURVE",
"-604 581 OFFCURVE",
"-381 581 CURVE SMOOTH"
);
}
);
width = 0;
}
);
unicode = A929;
},
{
glyphname = uniA92A;
lastChange = "2017-02-23 22:13:51 +0000";
layers = (
{
anchors = (
{
name = _top;
position = "{-381, 566}";
}
);
layerId = UUID0;
paths = (
{
closed = 1;
nodes = (
"-158 581 OFFCURVE",
"-140 655 OFFCURVE",
"-140 760 CURVE",
"-221 760 LINE",
"-221 670 OFFCURVE",
"-254 644 OFFCURVE",
"-379 644 CURVE SMOOTH",
"-504 644 OFFCURVE",
"-535 670 OFFCURVE",
"-535 760 CURVE",
"-616 760 LINE",
"-616 661 OFFCURVE",
"-604 581 OFFCURVE",
"-381 581 CURVE SMOOTH"
);
},
{
closed = 1;
nodes = (
"-352 662 OFFCURVE",
"-328 676 OFFCURVE",
"-328 714 CURVE SMOOTH",
"-328 753 OFFCURVE",
"-352 766 OFFCURVE",
"-379 766 CURVE SMOOTH",
"-408 766 OFFCURVE",
"-431 753 OFFCURVE",
"-431 714 CURVE SMOOTH",
"-431 676 OFFCURVE",
"-408 662 OFFCURVE",
"-379 662 CURVE SMOOTH"
);
}
);
width = 0;
}
);
unicode = A92A;
},
{
glyphname = uniA92B;
lastChange = "2017-02-23 22:13:51 +0000";
layers = (
{
anchors = (
{
name = _bottom;
position = "{-386, 0}";
}
);
layerId = UUID0;
paths = (
{
closed = 1;
nodes = (
"-358 -160 OFFCURVE",
"-334 -146 OFFCURVE",
"-334 -108 CURVE SMOOTH",
"-334 -69 OFFCURVE",
"-358 -56 OFFCURVE",
"-385 -56 CURVE SMOOTH",
"-414 -56 OFFCURVE",
"-437 -69 OFFCURVE",
"-437 -108 CURVE SMOOTH",
"-437 -146 OFFCURVE",
"-414 -160 OFFCURVE",
"-385 -160 CURVE SMOOTH"
);
}
);
width = 0;
}
);
unicode = A92B;
},
{
glyphname = uniA92C;
lastChange = "2017-02-23 22:13:51 +0000";
layers = (
{
anchors = (
{
name = _bottom_alt;
position = "{-586, 0}";
}
);
layerId = UUID0;
paths = (
{
closed = 1;
nodes = (
"-187 -240 OFFCURVE",
"-88 -202 OFFCURVE",
"-88 -52 CURVE",
"-169 -52 LINE",
"-169 -154 OFFCURVE",
"-227 -177 OFFCURVE",
"-387 -177 CURVE SMOOTH",
"-570 -177 OFFCURVE",
"-598 -130 OFFCURVE",
"-598 -79 CURVE SMOOTH",
"-598 -30 OFFCURVE",
"-571 -7 OFFCURVE",
"-505 2 CURVE",
"-505 30 LINE",
"-574 30 LINE",
"-657 19 OFFCURVE",
"-684 -7 OFFCURVE",
"-684 -85 CURVE SMOOTH",
"-684 -182 OFFCURVE",
"-623 -240 OFFCURVE",
"-383 -240 CURVE SMOOTH"
);
}
);
width = 0;
}
);
unicode = A92C;
},
{
glyphname = uniA92D;
lastChange = "2017-02-23 22:13:51 +0000";
layers = (
{
anchors = (
{
name = _bottom_alt;
position = "{-586, 0}";
}
);
layerId = UUID0;
paths = (
{
closed = 1;
nodes = (
"-187 -240 OFFCURVE",
"-88 -202 OFFCURVE",
"-88 -52 CURVE",
"-169 -52 LINE",
"-169 -154 OFFCURVE",
"-227 -177 OFFCURVE",
"-387 -177 CURVE SMOOTH",
"-570 -177 OFFCURVE",
"-598 -130 OFFCURVE",
"-598 -79 CURVE SMOOTH",
"-598 -30 OFFCURVE",
"-571 -7 OFFCURVE",
"-505 2 CURVE",
"-505 30 LINE",
"-574 30 LINE",
"-657 19 OFFCURVE",
"-684 -7 OFFCURVE",
"-684 -85 CURVE SMOOTH",
"-684 -182 OFFCURVE",
"-623 -240 OFFCURVE",
"-383 -240 CURVE SMOOTH"
);
},
{
closed = 1;
nodes = (
"-358 -140 OFFCURVE",
"-334 -126 OFFCURVE",
"-334 -88 CURVE SMOOTH",
"-334 -49 OFFCURVE",
"-358 -36 OFFCURVE",
"-385 -36 CURVE SMOOTH",
"-414 -36 OFFCURVE",
"-437 -49 OFFCURVE",
"-437 -88 CURVE SMOOTH",
"-437 -126 OFFCURVE",
"-414 -140 OFFCURVE",
"-385 -140 CURVE SMOOTH"
);
}
);
width = 0;
}
);
unicode = A92D;
},
{
glyphname = uniA92E;
lastChange = "2017-02-23 22:13:51 +0000";
layers = (
{
layerId = UUID0;
paths = (
{
closed = 1;
nodes = (
"99 276 OFFCURVE",
"198 319 OFFCURVE",
"385 319 CURVE SMOOTH",
"572 319 OFFCURVE",
"673 276 OFFCURVE",
"713 231 CURVE",
"734 241 LINE",
"704 321 OFFCURVE",
"564 394 OFFCURVE",
"383 394 CURVE SMOOTH",
"202 394 OFFCURVE",
"68 320 OFFCURVE",
"38 241 CURVE",
"59 231 LINE"
);
}
);
width = 772;
}
);
unicode = A92E;
},
{
glyphname = uniA92F;
lastChange = "2017-02-23 22:13:51 +0000";
layers = (
{
layerId = UUID0;
paths = (
{
closed = 1;
nodes = (
"172 1 LINE",
"172 536 LINE",
"88 536 LINE",
"88 1 LINE"
);
}
);
width = 260;
}
);
unicode = A92F;
},
{
glyphname = uniA92C.alt;
lastChange = "2017-02-23 22:13:51 +0000";
layers = (
{
anchors = (
{
name = _bottom_alt;
position = "{-596, 0}";
}
);
layerId = UUID0;
paths = (
{
closed = 1;
nodes = (
"-172 -240 OFFCURVE",
"-88 -195 OFFCURVE",
"-88 -52 CURVE",
"-169 -52 LINE",
"-169 -152 OFFCURVE",
"-221 -177 OFFCURVE",
"-387 -177 CURVE SMOOTH",
"-543 -177 OFFCURVE",
"-598 -151 OFFCURVE",
"-598 -68 CURVE SMOOTH",
"-598 15 LINE",
"-684 15 LINE",
"-684 -72 LINE SMOOTH",
"-684 -199 OFFCURVE",
"-607 -240 OFFCURVE",
"-383 -240 CURVE SMOOTH"
);
}
);
width = 0;
}
);
},
{
glyphname = uniA92D.alt;
lastChange = "2017-02-23 22:13:51 +0000";
layers = (
{
anchors = (
{
name = _bottom_alt;
position = "{-596, 0}";
}
);
layerId = UUID0;
paths = (
{
closed = 1;
nodes = (
"-172 -240 OFFCURVE",
"-88 -195 OFFCURVE",
"-88 -52 CURVE",
"-169 -52 LINE",
"-169 -152 OFFCURVE",
"-221 -177 OFFCURVE",
"-387 -177 CURVE SMOOTH",
"-543 -177 OFFCURVE",
"-598 -151 OFFCURVE",
"-598 -68 CURVE SMOOTH",
"-598 15 LINE",
"-684 15 LINE",
"-684 -72 LINE SMOOTH",
"-684 -199 OFFCURVE",
"-607 -240 OFFCURVE",
"-383 -240 CURVE SMOOTH"
);
},
{
closed = 1;
nodes = (
"-352 -140 OFFCURVE",
"-334 -121 OFFCURVE",
"-334 -88 CURVE SMOOTH",
"-334 -53 OFFCURVE",
"-353 -36 OFFCURVE",
"-385 -36 CURVE SMOOTH",
"-420 -36 OFFCURVE",
"-437 -53 OFFCURVE",
"-437 -88 CURVE SMOOTH",
"-437 -121 OFFCURVE",
"-420 -140 OFFCURVE",
"-385 -140 CURVE SMOOTH"
);
}
);
width = 0;
}
);
},
{
glyphname = uni25CC;
production = uni25CC;
lastChange = "2017-02-23 22:13:51 +0000";
layers = (
{
anchors = (
{
name = bottom;
position = "{297, 42}";
},
{
name = top;
position = "{297, 540}";
},
{
name = topright;
position = "{574, 553}";
}
);
associatedMasterId = UUID0;
background = {
anchors = (
{
name = bottom;
position = "{297, 42}";
},
{
name = top;
position = "{297, 540}";
},
{
name = topright;
position = "{574, 553}";
}
);
paths = (
{
closed = 1;
nodes = (
"199 522 OFFCURVE",
"187 510 OFFCURVE",
"187 496 CURVE",
"187 482 OFFCURVE",
"199 470 OFFCURVE",
"213 470 CURVE",
"227 470 OFFCURVE",
"239 482 OFFCURVE",
"239 496 CURVE",
"239 510 OFFCURVE",
"227 522 OFFCURVE",
"213 522 CURVE"
);
},
{
closed = 1;
nodes = (
"367 522 OFFCURVE",
"355 510 OFFCURVE",
"355 496 CURVE",
"355 482 OFFCURVE",
"367 470 OFFCURVE",
"381 470 CURVE",
"395 470 OFFCURVE",
"407 482 OFFCURVE",
"407 496 CURVE",
"407 510 OFFCURVE",
"395 522 OFFCURVE",
"381 522 CURVE"
);
},
{
closed = 1;
nodes = (
"199 112 OFFCURVE",
"187 100 OFFCURVE",
"187 86 CURVE",
"187 72 OFFCURVE",
"199 60 OFFCURVE",
"213 60 CURVE",
"227 60 OFFCURVE",
"239 72 OFFCURVE",
"239 86 CURVE",
"239 100 OFFCURVE",
"227 112 OFFCURVE",
"213 112 CURVE"
);
},
{
closed = 1;
nodes = (
"367 112 OFFCURVE",
"355 100 OFFCURVE",
"355 86 CURVE",
"355 72 OFFCURVE",
"367 60 OFFCURVE",
"381 60 CURVE",
"395 60 OFFCURVE",
"407 72 OFFCURVE",
"407 86 CURVE",
"407 100 OFFCURVE",
"395 112 OFFCURVE",
"381 112 CURVE"
);
},
{
closed = 1;
nodes = (
"283 540 OFFCURVE",
"271 528 OFFCURVE",
"271 514 CURVE",
"271 500 OFFCURVE",
"283 488 OFFCURVE",
"297 488 CURVE",
"311 488 OFFCURVE",
"323 500 OFFCURVE",
"323 514 CURVE",
"323 528 OFFCURVE",
"311 540 OFFCURVE",
"297 540 CURVE"
);
},
{
closed = 1;
nodes = (
"283 94 OFFCURVE",
"271 82 OFFCURVE",
"271 68 CURVE",
"271 54 OFFCURVE",
"283 42 OFFCURVE",
"297 42 CURVE",
"311 42 OFFCURVE",
"323 54 OFFCURVE",
"323 68 CURVE",
"323 82 OFFCURVE",
"311 94 OFFCURVE",
"297 94 CURVE"
);
},
{
closed = 1;
nodes = (
"48 277 OFFCURVE",
"60 265 OFFCURVE",
"74 265 CURVE",
"88 265 OFFCURVE",
"100 277 OFFCURVE",
"100 291 CURVE",
"100 305 OFFCURVE",
"88 317 OFFCURVE",
"74 317 CURVE",
"60 317 OFFCURVE",
"48 305 OFFCURVE",
"48 291 CURVE"
);
},
{
closed = 1;
nodes = (
"494 277 OFFCURVE",
"506 265 OFFCURVE",
"520 265 CURVE",
"534 265 OFFCURVE",
"546 277 OFFCURVE",
"546 291 CURVE",
"546 305 OFFCURVE",
"534 317 OFFCURVE",
"520 317 CURVE",
"506 317 OFFCURVE",
"494 305 OFFCURVE",
"494 291 CURVE"
);
},
{
closed = 1;
nodes = (
"113 119 OFFCURVE",
"125 107 OFFCURVE",
"139 107 CURVE",
"153 107 OFFCURVE",
"165 119 OFFCURVE",
"165 133 CURVE",
"165 147 OFFCURVE",
"153 159 OFFCURVE",
"139 159 CURVE",
"125 159 OFFCURVE",
"113 147 OFFCURVE",
"113 133 CURVE"
);
},
{
closed = 1;
nodes = (
"113 435 OFFCURVE",
"125 423 OFFCURVE",
"139 423 CURVE",
"153 423 OFFCURVE",
"165 435 OFFCURVE",
"165 449 CURVE",
"165 463 OFFCURVE",
"153 475 OFFCURVE",
"139 475 CURVE",
"125 475 OFFCURVE",
"113 463 OFFCURVE",
"113 449 CURVE"
);
},
{
closed = 1;
nodes = (
"429 119 OFFCURVE",
"441 107 OFFCURVE",
"455 107 CURVE",
"469 107 OFFCURVE",
"481 119 OFFCURVE",
"481 133 CURVE",
"481 147 OFFCURVE",
"469 159 OFFCURVE",
"455 159 CURVE",
"441 159 OFFCURVE",
"429 147 OFFCURVE",
"429 133 CURVE"
);
},
{
closed = 1;
nodes = (
"429 435 OFFCURVE",
"441 423 OFFCURVE",
"455 423 CURVE",
"469 423 OFFCURVE",
"481 435 OFFCURVE",
"481 449 CURVE",
"481 463 OFFCURVE",
"469 475 OFFCURVE",
"455 475 CURVE",
"441 475 OFFCURVE",
"429 463 OFFCURVE",
"429 449 CURVE"
);
},
{
closed = 1;
nodes = (
"66 193 OFFCURVE",
"78 181 OFFCURVE",
"92 181 CURVE",
"106 181 OFFCURVE",
"118 193 OFFCURVE",
"118 207 CURVE",
"118 221 OFFCURVE",
"106 233 OFFCURVE",
"92 233 CURVE",
"78 233 OFFCURVE",
"66 221 OFFCURVE",
"66 207 CURVE"
);
},
{
closed = 1;
nodes = (
"66 361 OFFCURVE",
"78 349 OFFCURVE",
"92 349 CURVE",
"106 349 OFFCURVE",
"118 361 OFFCURVE",
"118 375 CURVE",
"118 389 OFFCURVE",
"106 401 OFFCURVE",
"92 401 CURVE",
"78 401 OFFCURVE",
"66 389 OFFCURVE",
"66 375 CURVE"
);
},
{
closed = 1;
nodes = (
"476 193 OFFCURVE",
"488 181 OFFCURVE",
"502 181 CURVE",
"516 181 OFFCURVE",
"528 193 OFFCURVE",
"528 207 CURVE",
"528 221 OFFCURVE",
"516 233 OFFCURVE",
"502 233 CURVE",
"488 233 OFFCURVE",
"476 221 OFFCURVE",
"476 207 CURVE"
);
},
{
closed = 1;
nodes = (
"476 361 OFFCURVE",
"488 349 OFFCURVE",
"502 349 CURVE",
"516 349 OFFCURVE",
"528 361 OFFCURVE",
"528 375 CURVE",
"528 389 OFFCURVE",
"516 401 OFFCURVE",
"502 401 CURVE",
"488 401 OFFCURVE",
"476 389 OFFCURVE",
"476 375 CURVE"
);
}
);
};
layerId = "0A718E2F-231D-484E-9433-16A5230D2CE8";
paths = (
{
closed = 1;
nodes = (
"199 522 OFFCURVE",
"187 510 OFFCURVE",
"187 496 CURVE",
"187 482 OFFCURVE",
"199 470 OFFCURVE",
"213 470 CURVE",
"227 470 OFFCURVE",
"239 482 OFFCURVE",
"239 496 CURVE",
"239 510 OFFCURVE",
"227 522 OFFCURVE",
"213 522 CURVE"
);
},
{
closed = 1;
nodes = (
"367 522 OFFCURVE",
"355 510 OFFCURVE",
"355 496 CURVE",
"355 482 OFFCURVE",
"367 470 OFFCURVE",
"381 470 CURVE",
"395 470 OFFCURVE",
"407 482 OFFCURVE",
"407 496 CURVE",
"407 510 OFFCURVE",
"395 522 OFFCURVE",
"381 522 CURVE"
);
},
{
closed = 1;
nodes = (
"199 112 OFFCURVE",
"187 100 OFFCURVE",
"187 86 CURVE",
"187 72 OFFCURVE",
"199 60 OFFCURVE",
"213 60 CURVE",
"227 60 OFFCURVE",
"239 72 OFFCURVE",
"239 86 CURVE",
"239 100 OFFCURVE",
"227 112 OFFCURVE",
"213 112 CURVE"
);
},
{
closed = 1;
nodes = (
"367 112 OFFCURVE",
"355 100 OFFCURVE",
"355 86 CURVE",
"355 72 OFFCURVE",
"367 60 OFFCURVE",
"381 60 CURVE",
"395 60 OFFCURVE",
"407 72 OFFCURVE",
"407 86 CURVE",
"407 100 OFFCURVE",
"395 112 OFFCURVE",
"381 112 CURVE"
);
},
{
closed = 1;
nodes = (
"283 540 OFFCURVE",
"271 528 OFFCURVE",
"271 514 CURVE",
"271 500 OFFCURVE",
"283 488 OFFCURVE",
"297 488 CURVE",
"311 488 OFFCURVE",
"323 500 OFFCURVE",
"323 514 CURVE",
"323 528 OFFCURVE",
"311 540 OFFCURVE",
"297 540 CURVE"
);
},
{
closed = 1;
nodes = (
"283 94 OFFCURVE",
"271 82 OFFCURVE",
"271 68 CURVE",
"271 54 OFFCURVE",
"283 42 OFFCURVE",
"297 42 CURVE",
"311 42 OFFCURVE",
"323 54 OFFCURVE",
"323 68 CURVE",
"323 82 OFFCURVE",
"311 94 OFFCURVE",
"297 94 CURVE"
);
},
{
closed = 1;
nodes = (
"48 277 OFFCURVE",
"60 265 OFFCURVE",
"74 265 CURVE",
"88 265 OFFCURVE",
"100 277 OFFCURVE",
"100 291 CURVE",
"100 305 OFFCURVE",
"88 317 OFFCURVE",
"74 317 CURVE",
"60 317 OFFCURVE",
"48 305 OFFCURVE",
"48 291 CURVE"
);
},
{
closed = 1;
nodes = (
"494 277 OFFCURVE",
"506 265 OFFCURVE",
"520 265 CURVE",
"534 265 OFFCURVE",
"546 277 OFFCURVE",
"546 291 CURVE",
"546 305 OFFCURVE",
"534 317 OFFCURVE",
"520 317 CURVE",
"506 317 OFFCURVE",
"494 305 OFFCURVE",
"494 291 CURVE"
);
},
{
closed = 1;
nodes = (
"113 119 OFFCURVE",
"125 107 OFFCURVE",
"139 107 CURVE",
"153 107 OFFCURVE",
"165 119 OFFCURVE",
"165 133 CURVE",
"165 147 OFFCURVE",
"153 159 OFFCURVE",
"139 159 CURVE",
"125 159 OFFCURVE",
"113 147 OFFCURVE",
"113 133 CURVE"
);
},
{
closed = 1;
nodes = (
"113 435 OFFCURVE",
"125 423 OFFCURVE",
"139 423 CURVE",
"153 423 OFFCURVE",
"165 435 OFFCURVE",
"165 449 CURVE",
"165 463 OFFCURVE",
"153 475 OFFCURVE",
"139 475 CURVE",
"125 475 OFFCURVE",
"113 463 OFFCURVE",
"113 449 CURVE"
);
},
{
closed = 1;
nodes = (
"429 119 OFFCURVE",
"441 107 OFFCURVE",
"455 107 CURVE",
"469 107 OFFCURVE",
"481 119 OFFCURVE",
"481 133 CURVE",
"481 147 OFFCURVE",
"469 159 OFFCURVE",
"455 159 CURVE",
"441 159 OFFCURVE",
"429 147 OFFCURVE",
"429 133 CURVE"
);
},
{
closed = 1;
nodes = (
"429 435 OFFCURVE",
"441 423 OFFCURVE",
"455 423 CURVE",
"469 423 OFFCURVE",
"481 435 OFFCURVE",
"481 449 CURVE",
"481 463 OFFCURVE",
"469 475 OFFCURVE",
"455 475 CURVE",
"441 475 OFFCURVE",
"429 463 OFFCURVE",
"429 449 CURVE"
);
},
{
closed = 1;
nodes = (
"66 193 OFFCURVE",
"78 181 OFFCURVE",
"92 181 CURVE",
"106 181 OFFCURVE",
"118 193 OFFCURVE",
"118 207 CURVE",
"118 221 OFFCURVE",
"106 233 OFFCURVE",
"92 233 CURVE",
"78 233 OFFCURVE",
"66 221 OFFCURVE",
"66 207 CURVE"
);
},
{
closed = 1;
nodes = (
"66 361 OFFCURVE",
"78 349 OFFCURVE",
"92 349 CURVE",
"106 349 OFFCURVE",
"118 361 OFFCURVE",
"118 375 CURVE",
"118 389 OFFCURVE",
"106 401 OFFCURVE",
"92 401 CURVE",
"78 401 OFFCURVE",
"66 389 OFFCURVE",
"66 375 CURVE"
);
},
{
closed = 1;
nodes = (
"476 193 OFFCURVE",
"488 181 OFFCURVE",
"502 181 CURVE",
"516 181 OFFCURVE",
"528 193 OFFCURVE",
"528 207 CURVE",
"528 221 OFFCURVE",
"516 233 OFFCURVE",
"502 233 CURVE",
"488 233 OFFCURVE",
"476 221 OFFCURVE",
"476 207 CURVE"
);
},
{
closed = 1;
nodes = (
"476 361 OFFCURVE",
"488 349 OFFCURVE",
"502 349 CURVE",
"516 349 OFFCURVE",
"528 361 OFFCURVE",
"528 375 CURVE",
"528 389 OFFCURVE",
"516 401 OFFCURVE",
"502 401 CURVE",
"488 401 OFFCURVE",
"476 389 OFFCURVE",
"476 375 CURVE"
);
}
);
width = 594;
},
{
anchors = (
{
name = bottom;
position = "{297, 42}";
},
{
name = top;
position = "{297, 540}";
},
{
name = topright;
position = "{574, 553}";
}
);
associatedMasterId = UUID0;
background = {
anchors = (
{
name = bottom;
position = "{297, 42}";
},
{
name = top;
position = "{297, 540}";
},
{
name = topright;
position = "{574, 553}";
}
);
paths = (
{
closed = 1;
nodes = (
"199 522 OFFCURVE",
"187 510 OFFCURVE",
"187 496 CURVE SMOOTH",
"187 482 OFFCURVE",
"199 470 OFFCURVE",
"213 470 CURVE SMOOTH",
"227 470 OFFCURVE",
"239 482 OFFCURVE",
"239 496 CURVE SMOOTH",
"239 510 OFFCURVE",
"227 522 OFFCURVE",
"213 522 CURVE SMOOTH"
);
},
{
closed = 1;
nodes = (
"367 522 OFFCURVE",
"355 510 OFFCURVE",
"355 496 CURVE SMOOTH",
"355 482 OFFCURVE",
"367 470 OFFCURVE",
"381 470 CURVE SMOOTH",
"395 470 OFFCURVE",
"407 482 OFFCURVE",
"407 496 CURVE SMOOTH",
"407 510 OFFCURVE",
"395 522 OFFCURVE",
"381 522 CURVE SMOOTH"
);
},
{
closed = 1;
nodes = (
"199 112 OFFCURVE",
"187 100 OFFCURVE",
"187 86 CURVE SMOOTH",
"187 72 OFFCURVE",
"199 60 OFFCURVE",
"213 60 CURVE SMOOTH",
"227 60 OFFCURVE",
"239 72 OFFCURVE",
"239 86 CURVE SMOOTH",
"239 100 OFFCURVE",
"227 112 OFFCURVE",
"213 112 CURVE SMOOTH"
);
},
{
closed = 1;
nodes = (
"367 112 OFFCURVE",
"355 100 OFFCURVE",
"355 86 CURVE SMOOTH",
"355 72 OFFCURVE",
"367 60 OFFCURVE",
"381 60 CURVE SMOOTH",
"395 60 OFFCURVE",
"407 72 OFFCURVE",
"407 86 CURVE SMOOTH",
"407 100 OFFCURVE",
"395 112 OFFCURVE",
"381 112 CURVE SMOOTH"
);
},
{
closed = 1;
nodes = (
"283 540 OFFCURVE",
"271 528 OFFCURVE",
"271 514 CURVE SMOOTH",
"271 500 OFFCURVE",
"283 488 OFFCURVE",
"297 488 CURVE SMOOTH",
"311 488 OFFCURVE",
"323 500 OFFCURVE",
"323 514 CURVE SMOOTH",
"323 528 OFFCURVE",
"311 540 OFFCURVE",
"297 540 CURVE SMOOTH"
);
},
{
closed = 1;
nodes = (
"283 94 OFFCURVE",
"271 82 OFFCURVE",
"271 68 CURVE SMOOTH",
"271 54 OFFCURVE",
"283 42 OFFCURVE",
"297 42 CURVE SMOOTH",
"311 42 OFFCURVE",
"323 54 OFFCURVE",
"323 68 CURVE SMOOTH",
"323 82 OFFCURVE",
"311 94 OFFCURVE",
"297 94 CURVE SMOOTH"
);
},
{
closed = 1;
nodes = (
"48 277 OFFCURVE",
"60 265 OFFCURVE",
"74 265 CURVE SMOOTH",
"88 265 OFFCURVE",
"100 277 OFFCURVE",
"100 291 CURVE SMOOTH",
"100 305 OFFCURVE",
"88 317 OFFCURVE",
"74 317 CURVE SMOOTH",
"60 317 OFFCURVE",
"48 305 OFFCURVE",
"48 291 CURVE SMOOTH"
);
},
{
closed = 1;
nodes = (
"494 277 OFFCURVE",
"506 265 OFFCURVE",
"520 265 CURVE SMOOTH",
"534 265 OFFCURVE",
"546 277 OFFCURVE",
"546 291 CURVE SMOOTH",
"546 305 OFFCURVE",
"534 317 OFFCURVE",
"520 317 CURVE SMOOTH",
"506 317 OFFCURVE",
"494 305 OFFCURVE",
"494 291 CURVE SMOOTH"
);
},
{
closed = 1;
nodes = (
"113 119 OFFCURVE",
"125 107 OFFCURVE",
"139 107 CURVE SMOOTH",
"153 107 OFFCURVE",
"165 119 OFFCURVE",
"165 133 CURVE SMOOTH",
"165 147 OFFCURVE",
"153 159 OFFCURVE",
"139 159 CURVE SMOOTH",
"125 159 OFFCURVE",
"113 147 OFFCURVE",
"113 133 CURVE SMOOTH"
);
},
{
closed = 1;
nodes = (
"113 435 OFFCURVE",
"125 423 OFFCURVE",
"139 423 CURVE SMOOTH",
"153 423 OFFCURVE",
"165 435 OFFCURVE",
"165 449 CURVE SMOOTH",
"165 463 OFFCURVE",
"153 475 OFFCURVE",
"139 475 CURVE SMOOTH",
"125 475 OFFCURVE",
"113 463 OFFCURVE",
"113 449 CURVE SMOOTH"
);
},
{
closed = 1;
nodes = (
"429 119 OFFCURVE",
"441 107 OFFCURVE",
"455 107 CURVE SMOOTH",
"469 107 OFFCURVE",
"481 119 OFFCURVE",
"481 133 CURVE SMOOTH",
"481 147 OFFCURVE",
"469 159 OFFCURVE",
"455 159 CURVE SMOOTH",
"441 159 OFFCURVE",
"429 147 OFFCURVE",
"429 133 CURVE SMOOTH"
);
},
{
closed = 1;
nodes = (
"429 435 OFFCURVE",
"441 423 OFFCURVE",
"455 423 CURVE SMOOTH",
"469 423 OFFCURVE",
"481 435 OFFCURVE",
"481 449 CURVE SMOOTH",
"481 463 OFFCURVE",
"469 475 OFFCURVE",
"455 475 CURVE SMOOTH",
"441 475 OFFCURVE",
"429 463 OFFCURVE",
"429 449 CURVE SMOOTH"
);
},
{
closed = 1;
nodes = (
"66 193 OFFCURVE",
"78 181 OFFCURVE",
"92 181 CURVE SMOOTH",
"106 181 OFFCURVE",
"118 193 OFFCURVE",
"118 207 CURVE SMOOTH",
"118 221 OFFCURVE",
"106 233 OFFCURVE",
"92 233 CURVE SMOOTH",
"78 233 OFFCURVE",
"66 221 OFFCURVE",
"66 207 CURVE SMOOTH"
);
},
{
closed = 1;
nodes = (
"66 361 OFFCURVE",
"78 349 OFFCURVE",
"92 349 CURVE SMOOTH",
"106 349 OFFCURVE",
"118 361 OFFCURVE",
"118 375 CURVE SMOOTH",
"118 389 OFFCURVE",
"106 401 OFFCURVE",
"92 401 CURVE SMOOTH",
"78 401 OFFCURVE",
"66 389 OFFCURVE",
"66 375 CURVE SMOOTH"
);
},
{
closed = 1;
nodes = (
"476 193 OFFCURVE",
"488 181 OFFCURVE",
"502 181 CURVE SMOOTH",
"516 181 OFFCURVE",
"528 193 OFFCURVE",
"528 207 CURVE SMOOTH",
"528 221 OFFCURVE",
"516 233 OFFCURVE",
"502 233 CURVE SMOOTH",
"488 233 OFFCURVE",
"476 221 OFFCURVE",
"476 207 CURVE SMOOTH"
);
},
{
closed = 1;
nodes = (
"476 361 OFFCURVE",
"488 349 OFFCURVE",
"502 349 CURVE SMOOTH",
"516 349 OFFCURVE",
"528 361 OFFCURVE",
"528 375 CURVE SMOOTH",
"528 389 OFFCURVE",
"516 401 OFFCURVE",
"502 401 CURVE SMOOTH",
"488 401 OFFCURVE",
"476 389 OFFCURVE",
"476 375 CURVE SMOOTH"
);
}
);
};
layerId = "98E204A9-1C79-49C7-AB3E-40A925F56409";
paths = (
{
closed = 1;
nodes = (
"199 522 OFFCURVE",
"187 510 OFFCURVE",
"187 496 CURVE SMOOTH",
"187 482 OFFCURVE",
"199 470 OFFCURVE",
"213 470 CURVE SMOOTH",
"227 470 OFFCURVE",
"239 482 OFFCURVE",
"239 496 CURVE SMOOTH",
"239 510 OFFCURVE",
"227 522 OFFCURVE",
"213 522 CURVE SMOOTH"
);
},
{
closed = 1;
nodes = (
"367 522 OFFCURVE",
"355 510 OFFCURVE",
"355 496 CURVE SMOOTH",
"355 482 OFFCURVE",
"367 470 OFFCURVE",
"381 470 CURVE SMOOTH",
"395 470 OFFCURVE",
"407 482 OFFCURVE",
"407 496 CURVE SMOOTH",
"407 510 OFFCURVE",
"395 522 OFFCURVE",
"381 522 CURVE SMOOTH"
);
},
{
closed = 1;
nodes = (
"199 112 OFFCURVE",
"187 100 OFFCURVE",
"187 86 CURVE SMOOTH",
"187 72 OFFCURVE",
"199 60 OFFCURVE",
"213 60 CURVE SMOOTH",
"227 60 OFFCURVE",
"239 72 OFFCURVE",
"239 86 CURVE SMOOTH",
"239 100 OFFCURVE",
"227 112 OFFCURVE",
"213 112 CURVE SMOOTH"
);
},
{
closed = 1;
nodes = (
"367 112 OFFCURVE",
"355 100 OFFCURVE",
"355 86 CURVE SMOOTH",
"355 72 OFFCURVE",
"367 60 OFFCURVE",
"381 60 CURVE SMOOTH",
"395 60 OFFCURVE",
"407 72 OFFCURVE",
"407 86 CURVE SMOOTH",
"407 100 OFFCURVE",
"395 112 OFFCURVE",
"381 112 CURVE SMOOTH"
);
},
{
closed = 1;
nodes = (
"283 540 OFFCURVE",
"271 528 OFFCURVE",
"271 514 CURVE SMOOTH",
"271 500 OFFCURVE",
"283 488 OFFCURVE",
"297 488 CURVE SMOOTH",
"311 488 OFFCURVE",
"323 500 OFFCURVE",
"323 514 CURVE SMOOTH",
"323 528 OFFCURVE",
"311 540 OFFCURVE",
"297 540 CURVE SMOOTH"
);
},
{
closed = 1;
nodes = (
"283 94 OFFCURVE",
"271 82 OFFCURVE",
"271 68 CURVE SMOOTH",
"271 54 OFFCURVE",
"283 42 OFFCURVE",
"297 42 CURVE SMOOTH",
"311 42 OFFCURVE",
"323 54 OFFCURVE",
"323 68 CURVE SMOOTH",
"323 82 OFFCURVE",
"311 94 OFFCURVE",
"297 94 CURVE SMOOTH"
);
},
{
closed = 1;
nodes = (
"48 277 OFFCURVE",
"60 265 OFFCURVE",
"74 265 CURVE SMOOTH",
"88 265 OFFCURVE",
"100 277 OFFCURVE",
"100 291 CURVE SMOOTH",
"100 305 OFFCURVE",
"88 317 OFFCURVE",
"74 317 CURVE SMOOTH",
"60 317 OFFCURVE",
"48 305 OFFCURVE",
"48 291 CURVE SMOOTH"
);
},
{
closed = 1;
nodes = (
"494 277 OFFCURVE",
"506 265 OFFCURVE",
"520 265 CURVE SMOOTH",
"534 265 OFFCURVE",
"546 277 OFFCURVE",
"546 291 CURVE SMOOTH",
"546 305 OFFCURVE",
"534 317 OFFCURVE",
"520 317 CURVE SMOOTH",
"506 317 OFFCURVE",
"494 305 OFFCURVE",
"494 291 CURVE SMOOTH"
);
},
{
closed = 1;
nodes = (
"113 119 OFFCURVE",
"125 107 OFFCURVE",
"139 107 CURVE SMOOTH",
"153 107 OFFCURVE",
"165 119 OFFCURVE",
"165 133 CURVE SMOOTH",
"165 147 OFFCURVE",
"153 159 OFFCURVE",
"139 159 CURVE SMOOTH",
"125 159 OFFCURVE",
"113 147 OFFCURVE",
"113 133 CURVE SMOOTH"
);
},
{
closed = 1;
nodes = (
"113 435 OFFCURVE",
"125 423 OFFCURVE",
"139 423 CURVE SMOOTH",
"153 423 OFFCURVE",
"165 435 OFFCURVE",
"165 449 CURVE SMOOTH",
"165 463 OFFCURVE",
"153 475 OFFCURVE",
"139 475 CURVE SMOOTH",
"125 475 OFFCURVE",
"113 463 OFFCURVE",
"113 449 CURVE SMOOTH"
);
},
{
closed = 1;
nodes = (
"429 119 OFFCURVE",
"441 107 OFFCURVE",
"455 107 CURVE SMOOTH",
"469 107 OFFCURVE",
"481 119 OFFCURVE",
"481 133 CURVE SMOOTH",
"481 147 OFFCURVE",
"469 159 OFFCURVE",
"455 159 CURVE SMOOTH",
"441 159 OFFCURVE",
"429 147 OFFCURVE",
"429 133 CURVE SMOOTH"
);
},
{
closed = 1;
nodes = (
"429 435 OFFCURVE",
"441 423 OFFCURVE",
"455 423 CURVE SMOOTH",
"469 423 OFFCURVE",
"481 435 OFFCURVE",
"481 449 CURVE SMOOTH",
"481 463 OFFCURVE",
"469 475 OFFCURVE",
"455 475 CURVE SMOOTH",
"441 475 OFFCURVE",
"429 463 OFFCURVE",
"429 449 CURVE SMOOTH"
);
},
{
closed = 1;
nodes = (
"66 193 OFFCURVE",
"78 181 OFFCURVE",
"92 181 CURVE SMOOTH",
"106 181 OFFCURVE",
"118 193 OFFCURVE",
"118 207 CURVE SMOOTH",
"118 221 OFFCURVE",
"106 233 OFFCURVE",
"92 233 CURVE SMOOTH",
"78 233 OFFCURVE",
"66 221 OFFCURVE",
"66 207 CURVE SMOOTH"
);
},
{
closed = 1;
nodes = (
"66 361 OFFCURVE",
"78 349 OFFCURVE",
"92 349 CURVE SMOOTH",
"106 349 OFFCURVE",
"118 361 OFFCURVE",
"118 375 CURVE SMOOTH",
"118 389 OFFCURVE",
"106 401 OFFCURVE",
"92 401 CURVE SMOOTH",
"78 401 OFFCURVE",
"66 389 OFFCURVE",
"66 375 CURVE SMOOTH"
);
},
{
closed = 1;
nodes = (
"476 193 OFFCURVE",
"488 181 OFFCURVE",
"502 181 CURVE SMOOTH",
"516 181 OFFCURVE",
"528 193 OFFCURVE",
"528 207 CURVE SMOOTH",
"528 221 OFFCURVE",
"516 233 OFFCURVE",
"502 233 CURVE SMOOTH",
"488 233 OFFCURVE",
"476 221 OFFCURVE",
"476 207 CURVE SMOOTH"
);
},
{
closed = 1;
nodes = (
"476 361 OFFCURVE",
"488 349 OFFCURVE",
"502 349 CURVE SMOOTH",
"516 349 OFFCURVE",
"528 361 OFFCURVE",
"528 375 CURVE SMOOTH",
"528 389 OFFCURVE",
"516 401 OFFCURVE",
"502 401 CURVE SMOOTH",
"488 401 OFFCURVE",
"476 389 OFFCURVE",
"476 375 CURVE SMOOTH"
);
}
);
width = 594;
},
{
anchors = (
{
name = bottom;
position = "{297, 42}";
},
{
name = top;
position = "{297, 540}";
},
{
name = topright;
position = "{574, 536}";
}
);
associatedMasterId = UUID0;
background = {
anchors = (
{
name = bottom;
position = "{297, 42}";
},
{
name = top;
position = "{297, 540}";
},
{
name = topright;
position = "{574, 536}";
}
);
paths = (
{
closed = 1;
nodes = (
"199 522 OFFCURVE",
"187 510 OFFCURVE",
"187 496 CURVE SMOOTH",
"187 482 OFFCURVE",
"199 470 OFFCURVE",
"213 470 CURVE SMOOTH",
"227 470 OFFCURVE",
"239 482 OFFCURVE",
"239 496 CURVE SMOOTH",
"239 510 OFFCURVE",
"227 522 OFFCURVE",
"213 522 CURVE SMOOTH"
);
},
{
closed = 1;
nodes = (
"367 522 OFFCURVE",
"355 510 OFFCURVE",
"355 496 CURVE SMOOTH",
"355 482 OFFCURVE",
"367 470 OFFCURVE",
"381 470 CURVE SMOOTH",
"395 470 OFFCURVE",
"407 482 OFFCURVE",
"407 496 CURVE SMOOTH",
"407 510 OFFCURVE",
"395 522 OFFCURVE",
"381 522 CURVE SMOOTH"
);
},
{
closed = 1;
nodes = (
"199 112 OFFCURVE",
"187 100 OFFCURVE",
"187 86 CURVE SMOOTH",
"187 72 OFFCURVE",
"199 60 OFFCURVE",
"213 60 CURVE SMOOTH",
"227 60 OFFCURVE",
"239 72 OFFCURVE",
"239 86 CURVE SMOOTH",
"239 100 OFFCURVE",
"227 112 OFFCURVE",
"213 112 CURVE SMOOTH"
);
},
{
closed = 1;
nodes = (
"367 112 OFFCURVE",
"355 100 OFFCURVE",
"355 86 CURVE SMOOTH",
"355 72 OFFCURVE",
"367 60 OFFCURVE",
"381 60 CURVE SMOOTH",
"395 60 OFFCURVE",
"407 72 OFFCURVE",
"407 86 CURVE SMOOTH",
"407 100 OFFCURVE",
"395 112 OFFCURVE",
"381 112 CURVE SMOOTH"
);
},
{
closed = 1;
nodes = (
"283 540 OFFCURVE",
"271 528 OFFCURVE",
"271 514 CURVE SMOOTH",
"271 500 OFFCURVE",
"283 488 OFFCURVE",
"297 488 CURVE SMOOTH",
"311 488 OFFCURVE",
"323 500 OFFCURVE",
"323 514 CURVE SMOOTH",
"323 528 OFFCURVE",
"311 540 OFFCURVE",
"297 540 CURVE SMOOTH"
);
},
{
closed = 1;
nodes = (
"283 94 OFFCURVE",
"271 82 OFFCURVE",
"271 68 CURVE SMOOTH",
"271 54 OFFCURVE",
"283 42 OFFCURVE",
"297 42 CURVE SMOOTH",
"311 42 OFFCURVE",
"323 54 OFFCURVE",
"323 68 CURVE SMOOTH",
"323 82 OFFCURVE",
"311 94 OFFCURVE",
"297 94 CURVE SMOOTH"
);
},
{
closed = 1;
nodes = (
"48 277 OFFCURVE",
"60 265 OFFCURVE",
"74 265 CURVE SMOOTH",
"88 265 OFFCURVE",
"100 277 OFFCURVE",
"100 291 CURVE SMOOTH",
"100 305 OFFCURVE",
"88 317 OFFCURVE",
"74 317 CURVE SMOOTH",
"60 317 OFFCURVE",
"48 305 OFFCURVE",
"48 291 CURVE SMOOTH"
);
},
{
closed = 1;
nodes = (
"494 277 OFFCURVE",
"506 265 OFFCURVE",
"520 265 CURVE SMOOTH",
"534 265 OFFCURVE",
"546 277 OFFCURVE",
"546 291 CURVE SMOOTH",
"546 305 OFFCURVE",
"534 317 OFFCURVE",
"520 317 CURVE SMOOTH",
"506 317 OFFCURVE",
"494 305 OFFCURVE",
"494 291 CURVE SMOOTH"
);
},
{
closed = 1;
nodes = (
"113 119 OFFCURVE",
"125 107 OFFCURVE",
"139 107 CURVE SMOOTH",
"153 107 OFFCURVE",
"165 119 OFFCURVE",
"165 133 CURVE SMOOTH",
"165 147 OFFCURVE",
"153 159 OFFCURVE",
"139 159 CURVE SMOOTH",
"125 159 OFFCURVE",
"113 147 OFFCURVE",
"113 133 CURVE SMOOTH"
);
},
{
closed = 1;
nodes = (
"113 435 OFFCURVE",
"125 423 OFFCURVE",
"139 423 CURVE SMOOTH",
"153 423 OFFCURVE",
"165 435 OFFCURVE",
"165 449 CURVE SMOOTH",
"165 463 OFFCURVE",
"153 475 OFFCURVE",
"139 475 CURVE SMOOTH",
"125 475 OFFCURVE",
"113 463 OFFCURVE",
"113 449 CURVE SMOOTH"
);
},
{
closed = 1;
nodes = (
"429 119 OFFCURVE",
"441 107 OFFCURVE",
"455 107 CURVE SMOOTH",
"469 107 OFFCURVE",
"481 119 OFFCURVE",
"481 133 CURVE SMOOTH",
"481 147 OFFCURVE",
"469 159 OFFCURVE",
"455 159 CURVE SMOOTH",
"441 159 OFFCURVE",
"429 147 OFFCURVE",
"429 133 CURVE SMOOTH"
);
},
{
closed = 1;
nodes = (
"429 435 OFFCURVE",
"441 423 OFFCURVE",
"455 423 CURVE SMOOTH",
"469 423 OFFCURVE",
"481 435 OFFCURVE",
"481 449 CURVE SMOOTH",
"481 463 OFFCURVE",
"469 475 OFFCURVE",
"455 475 CURVE SMOOTH",
"441 475 OFFCURVE",
"429 463 OFFCURVE",
"429 449 CURVE SMOOTH"
);
},
{
closed = 1;
nodes = (
"66 193 OFFCURVE",
"78 181 OFFCURVE",
"92 181 CURVE SMOOTH",
"106 181 OFFCURVE",
"118 193 OFFCURVE",
"118 207 CURVE SMOOTH",
"118 221 OFFCURVE",
"106 233 OFFCURVE",
"92 233 CURVE SMOOTH",
"78 233 OFFCURVE",
"66 221 OFFCURVE",
"66 207 CURVE SMOOTH"
);
},
{
closed = 1;
nodes = (
"66 361 OFFCURVE",
"78 349 OFFCURVE",
"92 349 CURVE SMOOTH",
"106 349 OFFCURVE",
"118 361 OFFCURVE",
"118 375 CURVE SMOOTH",
"118 389 OFFCURVE",
"106 401 OFFCURVE",
"92 401 CURVE SMOOTH",
"78 401 OFFCURVE",
"66 389 OFFCURVE",
"66 375 CURVE SMOOTH"
);
},
{
closed = 1;
nodes = (
"476 193 OFFCURVE",
"488 181 OFFCURVE",
"502 181 CURVE SMOOTH",
"516 181 OFFCURVE",
"528 193 OFFCURVE",
"528 207 CURVE SMOOTH",
"528 221 OFFCURVE",
"516 233 OFFCURVE",
"502 233 CURVE SMOOTH",
"488 233 OFFCURVE",
"476 221 OFFCURVE",
"476 207 CURVE SMOOTH"
);
},
{
closed = 1;
nodes = (
"476 361 OFFCURVE",
"488 349 OFFCURVE",
"502 349 CURVE SMOOTH",
"516 349 OFFCURVE",
"528 361 OFFCURVE",
"528 375 CURVE SMOOTH",
"528 389 OFFCURVE",
"516 401 OFFCURVE",
"502 401 CURVE SMOOTH",
"488 401 OFFCURVE",
"476 389 OFFCURVE",
"476 375 CURVE SMOOTH"
);
}
);
};
layerId = "9FF96064-8718-4A86-A5C8-73C592101F67";
paths = (
{
closed = 1;
nodes = (
"199 522 OFFCURVE",
"187 510 OFFCURVE",
"187 496 CURVE SMOOTH",
"187 482 OFFCURVE",
"199 470 OFFCURVE",
"213 470 CURVE SMOOTH",
"227 470 OFFCURVE",
"239 482 OFFCURVE",
"239 496 CURVE SMOOTH",
"239 510 OFFCURVE",
"227 522 OFFCURVE",
"213 522 CURVE SMOOTH"
);
},
{
closed = 1;
nodes = (
"367 522 OFFCURVE",
"355 510 OFFCURVE",
"355 496 CURVE SMOOTH",
"355 482 OFFCURVE",
"367 470 OFFCURVE",
"381 470 CURVE SMOOTH",
"395 470 OFFCURVE",
"407 482 OFFCURVE",
"407 496 CURVE SMOOTH",
"407 510 OFFCURVE",
"395 522 OFFCURVE",
"381 522 CURVE SMOOTH"
);
},
{
closed = 1;
nodes = (
"199 112 OFFCURVE",
"187 100 OFFCURVE",
"187 86 CURVE SMOOTH",
"187 72 OFFCURVE",
"199 60 OFFCURVE",
"213 60 CURVE SMOOTH",
"227 60 OFFCURVE",
"239 72 OFFCURVE",
"239 86 CURVE SMOOTH",
"239 100 OFFCURVE",
"227 112 OFFCURVE",
"213 112 CURVE SMOOTH"
);
},
{
closed = 1;
nodes = (
"367 112 OFFCURVE",
"355 100 OFFCURVE",
"355 86 CURVE SMOOTH",
"355 72 OFFCURVE",
"367 60 OFFCURVE",
"381 60 CURVE SMOOTH",
"395 60 OFFCURVE",
"407 72 OFFCURVE",
"407 86 CURVE SMOOTH",
"407 100 OFFCURVE",
"395 112 OFFCURVE",
"381 112 CURVE SMOOTH"
);
},
{
closed = 1;
nodes = (
"283 540 OFFCURVE",
"271 528 OFFCURVE",
"271 514 CURVE SMOOTH",
"271 500 OFFCURVE",
"283 488 OFFCURVE",
"297 488 CURVE SMOOTH",
"311 488 OFFCURVE",
"323 500 OFFCURVE",
"323 514 CURVE SMOOTH",
"323 528 OFFCURVE",
"311 540 OFFCURVE",
"297 540 CURVE SMOOTH"
);
},
{
closed = 1;
nodes = (
"283 94 OFFCURVE",
"271 82 OFFCURVE",
"271 68 CURVE SMOOTH",
"271 54 OFFCURVE",
"283 42 OFFCURVE",
"297 42 CURVE SMOOTH",
"311 42 OFFCURVE",
"323 54 OFFCURVE",
"323 68 CURVE SMOOTH",
"323 82 OFFCURVE",
"311 94 OFFCURVE",
"297 94 CURVE SMOOTH"
);
},
{
closed = 1;
nodes = (
"48 277 OFFCURVE",
"60 265 OFFCURVE",
"74 265 CURVE SMOOTH",
"88 265 OFFCURVE",
"100 277 OFFCURVE",
"100 291 CURVE SMOOTH",
"100 305 OFFCURVE",
"88 317 OFFCURVE",
"74 317 CURVE SMOOTH",
"60 317 OFFCURVE",
"48 305 OFFCURVE",
"48 291 CURVE SMOOTH"
);
},
{
closed = 1;
nodes = (
"494 277 OFFCURVE",
"506 265 OFFCURVE",
"520 265 CURVE SMOOTH",
"534 265 OFFCURVE",
"546 277 OFFCURVE",
"546 291 CURVE SMOOTH",
"546 305 OFFCURVE",
"534 317 OFFCURVE",
"520 317 CURVE SMOOTH",
"506 317 OFFCURVE",
"494 305 OFFCURVE",
"494 291 CURVE SMOOTH"
);
},
{
closed = 1;
nodes = (
"113 119 OFFCURVE",
"125 107 OFFCURVE",
"139 107 CURVE SMOOTH",
"153 107 OFFCURVE",
"165 119 OFFCURVE",
"165 133 CURVE SMOOTH",
"165 147 OFFCURVE",
"153 159 OFFCURVE",
"139 159 CURVE SMOOTH",
"125 159 OFFCURVE",
"113 147 OFFCURVE",
"113 133 CURVE SMOOTH"
);
},
{
closed = 1;
nodes = (
"113 435 OFFCURVE",
"125 423 OFFCURVE",
"139 423 CURVE SMOOTH",
"153 423 OFFCURVE",
"165 435 OFFCURVE",
"165 449 CURVE SMOOTH",
"165 463 OFFCURVE",
"153 475 OFFCURVE",
"139 475 CURVE SMOOTH",
"125 475 OFFCURVE",
"113 463 OFFCURVE",
"113 449 CURVE SMOOTH"
);
},
{
closed = 1;
nodes = (
"429 119 OFFCURVE",
"441 107 OFFCURVE",
"455 107 CURVE SMOOTH",
"469 107 OFFCURVE",
"481 119 OFFCURVE",
"481 133 CURVE SMOOTH",
"481 147 OFFCURVE",
"469 159 OFFCURVE",
"455 159 CURVE SMOOTH",
"441 159 OFFCURVE",
"429 147 OFFCURVE",
"429 133 CURVE SMOOTH"
);
},
{
closed = 1;
nodes = (
"429 435 OFFCURVE",
"441 423 OFFCURVE",
"455 423 CURVE SMOOTH",
"469 423 OFFCURVE",
"481 435 OFFCURVE",
"481 449 CURVE SMOOTH",
"481 463 OFFCURVE",
"469 475 OFFCURVE",
"455 475 CURVE SMOOTH",
"441 475 OFFCURVE",
"429 463 OFFCURVE",
"429 449 CURVE SMOOTH"
);
},
{
closed = 1;
nodes = (
"66 193 OFFCURVE",
"78 181 OFFCURVE",
"92 181 CURVE SMOOTH",
"106 181 OFFCURVE",
"118 193 OFFCURVE",
"118 207 CURVE SMOOTH",
"118 221 OFFCURVE",
"106 233 OFFCURVE",
"92 233 CURVE SMOOTH",
"78 233 OFFCURVE",
"66 221 OFFCURVE",
"66 207 CURVE SMOOTH"
);
},
{
closed = 1;
nodes = (
"66 361 OFFCURVE",
"78 349 OFFCURVE",
"92 349 CURVE SMOOTH",
"106 349 OFFCURVE",
"118 361 OFFCURVE",
"118 375 CURVE SMOOTH",
"118 389 OFFCURVE",
"106 401 OFFCURVE",
"92 401 CURVE SMOOTH",
"78 401 OFFCURVE",
"66 389 OFFCURVE",
"66 375 CURVE SMOOTH"
);
},
{
closed = 1;
nodes = (
"476 193 OFFCURVE",
"488 181 OFFCURVE",
"502 181 CURVE SMOOTH",
"516 181 OFFCURVE",
"528 193 OFFCURVE",
"528 207 CURVE SMOOTH",
"528 221 OFFCURVE",
"516 233 OFFCURVE",
"502 233 CURVE SMOOTH",
"488 233 OFFCURVE",
"476 221 OFFCURVE",
"476 207 CURVE SMOOTH"
);
},
{
closed = 1;
nodes = (
"476 361 OFFCURVE",
"488 349 OFFCURVE",
"502 349 CURVE SMOOTH",
"516 349 OFFCURVE",
"528 361 OFFCURVE",
"528 375 CURVE SMOOTH",
"528 389 OFFCURVE",
"516 401 OFFCURVE",
"502 401 CURVE SMOOTH",
"488 401 OFFCURVE",
"476 389 OFFCURVE",
"476 375 CURVE SMOOTH"
);
}
);
width = 594;
},
{
anchors = (
{
name = bottom;
position = "{297, 42}";
},
{
name = top;
position = "{297, 540}";
},
{
name = topright;
position = "{574, 546}";
}
);
associatedMasterId = UUID0;
background = {
anchors = (
{
name = bottom;
position = "{297, 42}";
},
{
name = top;
position = "{297, 540}";
},
{
name = topright;
position = "{574, 546}";
}
);
paths = (
{
closed = 1;
nodes = (
"199 522 OFFCURVE",
"187 510 OFFCURVE",
"187 496 CURVE SMOOTH",
"187 482 OFFCURVE",
"199 470 OFFCURVE",
"213 470 CURVE SMOOTH",
"227 470 OFFCURVE",
"239 482 OFFCURVE",
"239 496 CURVE SMOOTH",
"239 510 OFFCURVE",
"227 522 OFFCURVE",
"213 522 CURVE SMOOTH"
);
},
{
closed = 1;
nodes = (
"367 522 OFFCURVE",
"355 510 OFFCURVE",
"355 496 CURVE SMOOTH",
"355 482 OFFCURVE",
"367 470 OFFCURVE",
"381 470 CURVE SMOOTH",
"395 470 OFFCURVE",
"407 482 OFFCURVE",
"407 496 CURVE SMOOTH",
"407 510 OFFCURVE",
"395 522 OFFCURVE",
"381 522 CURVE SMOOTH"
);
},
{
closed = 1;
nodes = (
"199 112 OFFCURVE",
"187 100 OFFCURVE",
"187 86 CURVE SMOOTH",
"187 72 OFFCURVE",
"199 60 OFFCURVE",
"213 60 CURVE SMOOTH",
"227 60 OFFCURVE",
"239 72 OFFCURVE",
"239 86 CURVE SMOOTH",
"239 100 OFFCURVE",
"227 112 OFFCURVE",
"213 112 CURVE SMOOTH"
);
},
{
closed = 1;
nodes = (
"367 112 OFFCURVE",
"355 100 OFFCURVE",
"355 86 CURVE SMOOTH",
"355 72 OFFCURVE",
"367 60 OFFCURVE",
"381 60 CURVE SMOOTH",
"395 60 OFFCURVE",
"407 72 OFFCURVE",
"407 86 CURVE SMOOTH",
"407 100 OFFCURVE",
"395 112 OFFCURVE",
"381 112 CURVE SMOOTH"
);
},
{
closed = 1;
nodes = (
"283 540 OFFCURVE",
"271 528 OFFCURVE",
"271 514 CURVE SMOOTH",
"271 500 OFFCURVE",
"283 488 OFFCURVE",
"297 488 CURVE SMOOTH",
"311 488 OFFCURVE",
"323 500 OFFCURVE",
"323 514 CURVE SMOOTH",
"323 528 OFFCURVE",
"311 540 OFFCURVE",
"297 540 CURVE SMOOTH"
);
},
{
closed = 1;
nodes = (
"283 94 OFFCURVE",
"271 82 OFFCURVE",
"271 68 CURVE SMOOTH",
"271 54 OFFCURVE",
"283 42 OFFCURVE",
"297 42 CURVE SMOOTH",
"311 42 OFFCURVE",
"323 54 OFFCURVE",
"323 68 CURVE SMOOTH",
"323 82 OFFCURVE",
"311 94 OFFCURVE",
"297 94 CURVE SMOOTH"
);
},
{
closed = 1;
nodes = (
"48 277 OFFCURVE",
"60 265 OFFCURVE",
"74 265 CURVE SMOOTH",
"88 265 OFFCURVE",
"100 277 OFFCURVE",
"100 291 CURVE SMOOTH",
"100 305 OFFCURVE",
"88 317 OFFCURVE",
"74 317 CURVE SMOOTH",
"60 317 OFFCURVE",
"48 305 OFFCURVE",
"48 291 CURVE SMOOTH"
);
},
{
closed = 1;
nodes = (
"494 277 OFFCURVE",
"506 265 OFFCURVE",
"520 265 CURVE SMOOTH",
"534 265 OFFCURVE",
"546 277 OFFCURVE",
"546 291 CURVE SMOOTH",
"546 305 OFFCURVE",
"534 317 OFFCURVE",
"520 317 CURVE SMOOTH",
"506 317 OFFCURVE",
"494 305 OFFCURVE",
"494 291 CURVE SMOOTH"
);
},
{
closed = 1;
nodes = (
"113 119 OFFCURVE",
"125 107 OFFCURVE",
"139 107 CURVE SMOOTH",
"153 107 OFFCURVE",
"165 119 OFFCURVE",
"165 133 CURVE SMOOTH",
"165 147 OFFCURVE",
"153 159 OFFCURVE",
"139 159 CURVE SMOOTH",
"125 159 OFFCURVE",
"113 147 OFFCURVE",
"113 133 CURVE SMOOTH"
);
},
{
closed = 1;
nodes = (
"113 435 OFFCURVE",
"125 423 OFFCURVE",
"139 423 CURVE SMOOTH",
"153 423 OFFCURVE",
"165 435 OFFCURVE",
"165 449 CURVE SMOOTH",
"165 463 OFFCURVE",
"153 475 OFFCURVE",
"139 475 CURVE SMOOTH",
"125 475 OFFCURVE",
"113 463 OFFCURVE",
"113 449 CURVE SMOOTH"
);
},
{
closed = 1;
nodes = (
"429 119 OFFCURVE",
"441 107 OFFCURVE",
"455 107 CURVE SMOOTH",
"469 107 OFFCURVE",
"481 119 OFFCURVE",
"481 133 CURVE SMOOTH",
"481 147 OFFCURVE",
"469 159 OFFCURVE",
"455 159 CURVE SMOOTH",
"441 159 OFFCURVE",
"429 147 OFFCURVE",
"429 133 CURVE SMOOTH"
);
},
{
closed = 1;
nodes = (
"429 435 OFFCURVE",
"441 423 OFFCURVE",
"455 423 CURVE SMOOTH",
"469 423 OFFCURVE",
"481 435 OFFCURVE",
"481 449 CURVE SMOOTH",
"481 463 OFFCURVE",
"469 475 OFFCURVE",
"455 475 CURVE SMOOTH",
"441 475 OFFCURVE",
"429 463 OFFCURVE",
"429 449 CURVE SMOOTH"
);
},
{
closed = 1;
nodes = (
"66 193 OFFCURVE",
"78 181 OFFCURVE",
"92 181 CURVE SMOOTH",
"106 181 OFFCURVE",
"118 193 OFFCURVE",
"118 207 CURVE SMOOTH",
"118 221 OFFCURVE",
"106 233 OFFCURVE",
"92 233 CURVE SMOOTH",
"78 233 OFFCURVE",
"66 221 OFFCURVE",
"66 207 CURVE SMOOTH"
);
},
{
closed = 1;
nodes = (
"66 361 OFFCURVE",
"78 349 OFFCURVE",
"92 349 CURVE SMOOTH",
"106 349 OFFCURVE",
"118 361 OFFCURVE",
"118 375 CURVE SMOOTH",
"118 389 OFFCURVE",
"106 401 OFFCURVE",
"92 401 CURVE SMOOTH",
"78 401 OFFCURVE",
"66 389 OFFCURVE",
"66 375 CURVE SMOOTH"
);
},
{
closed = 1;
nodes = (
"476 193 OFFCURVE",
"488 181 OFFCURVE",
"502 181 CURVE SMOOTH",
"516 181 OFFCURVE",
"528 193 OFFCURVE",
"528 207 CURVE SMOOTH",
"528 221 OFFCURVE",
"516 233 OFFCURVE",
"502 233 CURVE SMOOTH",
"488 233 OFFCURVE",
"476 221 OFFCURVE",
"476 207 CURVE SMOOTH"
);
},
{
closed = 1;
nodes = (
"476 361 OFFCURVE",
"488 349 OFFCURVE",
"502 349 CURVE SMOOTH",
"516 349 OFFCURVE",
"528 361 OFFCURVE",
"528 375 CURVE SMOOTH",
"528 389 OFFCURVE",
"516 401 OFFCURVE",
"502 401 CURVE SMOOTH",
"488 401 OFFCURVE",
"476 389 OFFCURVE",
"476 375 CURVE SMOOTH"
);
}
);
};
layerId = "134B12F2-BF5D-48E3-8003-C7502B438C7E";
paths = (
{
closed = 1;
nodes = (
"199 522 OFFCURVE",
"187 510 OFFCURVE",
"187 496 CURVE SMOOTH",
"187 482 OFFCURVE",
"199 470 OFFCURVE",
"213 470 CURVE SMOOTH",
"227 470 OFFCURVE",
"239 482 OFFCURVE",
"239 496 CURVE SMOOTH",
"239 510 OFFCURVE",
"227 522 OFFCURVE",
"213 522 CURVE SMOOTH"
);
},
{
closed = 1;
nodes = (
"367 522 OFFCURVE",
"355 510 OFFCURVE",
"355 496 CURVE SMOOTH",
"355 482 OFFCURVE",
"367 470 OFFCURVE",
"381 470 CURVE SMOOTH",
"395 470 OFFCURVE",
"407 482 OFFCURVE",
"407 496 CURVE SMOOTH",
"407 510 OFFCURVE",
"395 522 OFFCURVE",
"381 522 CURVE SMOOTH"
);
},
{
closed = 1;
nodes = (
"199 112 OFFCURVE",
"187 100 OFFCURVE",
"187 86 CURVE SMOOTH",
"187 72 OFFCURVE",
"199 60 OFFCURVE",
"213 60 CURVE SMOOTH",
"227 60 OFFCURVE",
"239 72 OFFCURVE",
"239 86 CURVE SMOOTH",
"239 100 OFFCURVE",
"227 112 OFFCURVE",
"213 112 CURVE SMOOTH"
);
},
{
closed = 1;
nodes = (
"367 112 OFFCURVE",
"355 100 OFFCURVE",
"355 86 CURVE SMOOTH",
"355 72 OFFCURVE",
"367 60 OFFCURVE",
"381 60 CURVE SMOOTH",
"395 60 OFFCURVE",
"407 72 OFFCURVE",
"407 86 CURVE SMOOTH",
"407 100 OFFCURVE",
"395 112 OFFCURVE",
"381 112 CURVE SMOOTH"
);
},
{
closed = 1;
nodes = (
"283 540 OFFCURVE",
"271 528 OFFCURVE",
"271 514 CURVE SMOOTH",
"271 500 OFFCURVE",
"283 488 OFFCURVE",
"297 488 CURVE SMOOTH",
"311 488 OFFCURVE",
"323 500 OFFCURVE",
"323 514 CURVE SMOOTH",
"323 528 OFFCURVE",
"311 540 OFFCURVE",
"297 540 CURVE SMOOTH"
);
},
{
closed = 1;
nodes = (
"283 94 OFFCURVE",
"271 82 OFFCURVE",
"271 68 CURVE SMOOTH",
"271 54 OFFCURVE",
"283 42 OFFCURVE",
"297 42 CURVE SMOOTH",
"311 42 OFFCURVE",
"323 54 OFFCURVE",
"323 68 CURVE SMOOTH",
"323 82 OFFCURVE",
"311 94 OFFCURVE",
"297 94 CURVE SMOOTH"
);
},
{
closed = 1;
nodes = (
"48 277 OFFCURVE",
"60 265 OFFCURVE",
"74 265 CURVE SMOOTH",
"88 265 OFFCURVE",
"100 277 OFFCURVE",
"100 291 CURVE SMOOTH",
"100 305 OFFCURVE",
"88 317 OFFCURVE",
"74 317 CURVE SMOOTH",
"60 317 OFFCURVE",
"48 305 OFFCURVE",
"48 291 CURVE SMOOTH"
);
},
{
closed = 1;
nodes = (
"494 277 OFFCURVE",
"506 265 OFFCURVE",
"520 265 CURVE SMOOTH",
"534 265 OFFCURVE",
"546 277 OFFCURVE",
"546 291 CURVE SMOOTH",
"546 305 OFFCURVE",
"534 317 OFFCURVE",
"520 317 CURVE SMOOTH",
"506 317 OFFCURVE",
"494 305 OFFCURVE",
"494 291 CURVE SMOOTH"
);
},
{
closed = 1;
nodes = (
"113 119 OFFCURVE",
"125 107 OFFCURVE",
"139 107 CURVE SMOOTH",
"153 107 OFFCURVE",
"165 119 OFFCURVE",
"165 133 CURVE SMOOTH",
"165 147 OFFCURVE",
"153 159 OFFCURVE",
"139 159 CURVE SMOOTH",
"125 159 OFFCURVE",
"113 147 OFFCURVE",
"113 133 CURVE SMOOTH"
);
},
{
closed = 1;
nodes = (
"113 435 OFFCURVE",
"125 423 OFFCURVE",
"139 423 CURVE SMOOTH",
"153 423 OFFCURVE",
"165 435 OFFCURVE",
"165 449 CURVE SMOOTH",
"165 463 OFFCURVE",
"153 475 OFFCURVE",
"139 475 CURVE SMOOTH",
"125 475 OFFCURVE",
"113 463 OFFCURVE",
"113 449 CURVE SMOOTH"
);
},
{
closed = 1;
nodes = (
"429 119 OFFCURVE",
"441 107 OFFCURVE",
"455 107 CURVE SMOOTH",
"469 107 OFFCURVE",
"481 119 OFFCURVE",
"481 133 CURVE SMOOTH",
"481 147 OFFCURVE",
"469 159 OFFCURVE",
"455 159 CURVE SMOOTH",
"441 159 OFFCURVE",
"429 147 OFFCURVE",
"429 133 CURVE SMOOTH"
);
},
{
closed = 1;
nodes = (
"429 435 OFFCURVE",
"441 423 OFFCURVE",
"455 423 CURVE SMOOTH",
"469 423 OFFCURVE",
"481 435 OFFCURVE",
"481 449 CURVE SMOOTH",
"481 463 OFFCURVE",
"469 475 OFFCURVE",
"455 475 CURVE SMOOTH",
"441 475 OFFCURVE",
"429 463 OFFCURVE",
"429 449 CURVE SMOOTH"
);
},
{
closed = 1;
nodes = (
"66 193 OFFCURVE",
"78 181 OFFCURVE",
"92 181 CURVE SMOOTH",
"106 181 OFFCURVE",
"118 193 OFFCURVE",
"118 207 CURVE SMOOTH",
"118 221 OFFCURVE",
"106 233 OFFCURVE",
"92 233 CURVE SMOOTH",
"78 233 OFFCURVE",
"66 221 OFFCURVE",
"66 207 CURVE SMOOTH"
);
},
{
closed = 1;
nodes = (
"66 361 OFFCURVE",
"78 349 OFFCURVE",
"92 349 CURVE SMOOTH",
"106 349 OFFCURVE",
"118 361 OFFCURVE",
"118 375 CURVE SMOOTH",
"118 389 OFFCURVE",
"106 401 OFFCURVE",
"92 401 CURVE SMOOTH",
"78 401 OFFCURVE",
"66 389 OFFCURVE",
"66 375 CURVE SMOOTH"
);
},
{
closed = 1;
nodes = (
"476 193 OFFCURVE",
"488 181 OFFCURVE",
"502 181 CURVE SMOOTH",
"516 181 OFFCURVE",
"528 193 OFFCURVE",
"528 207 CURVE SMOOTH",
"528 221 OFFCURVE",
"516 233 OFFCURVE",
"502 233 CURVE SMOOTH",
"488 233 OFFCURVE",
"476 221 OFFCURVE",
"476 207 CURVE SMOOTH"
);
},
{
closed = 1;
nodes = (
"476 361 OFFCURVE",
"488 349 OFFCURVE",
"502 349 CURVE SMOOTH",
"516 349 OFFCURVE",
"528 361 OFFCURVE",
"528 375 CURVE SMOOTH",
"528 389 OFFCURVE",
"516 401 OFFCURVE",
"502 401 CURVE SMOOTH",
"488 401 OFFCURVE",
"476 389 OFFCURVE",
"476 375 CURVE SMOOTH"
);
}
);
width = 594;
},
{
anchors = (
{
name = bottom;
position = "{297, 42}";
},
{
name = top;
position = "{297, 540}";
},
{
name = topright;
position = "{574, 537}";
}
);
associatedMasterId = UUID0;
background = {
anchors = (
{
name = bottom;
position = "{297, 42}";
},
{
name = top;
position = "{297, 540}";
},
{
name = topright;
position = "{574, 537}";
}
);
paths = (
{
closed = 1;
nodes = (
"199 522 OFFCURVE",
"187 510 OFFCURVE",
"187 496 CURVE",
"187 482 OFFCURVE",
"199 470 OFFCURVE",
"213 470 CURVE",
"227 470 OFFCURVE",
"239 482 OFFCURVE",
"239 496 CURVE",
"239 510 OFFCURVE",
"227 522 OFFCURVE",
"213 522 CURVE"
);
},
{
closed = 1;
nodes = (
"367 522 OFFCURVE",
"355 510 OFFCURVE",
"355 496 CURVE",
"355 482 OFFCURVE",
"367 470 OFFCURVE",
"381 470 CURVE",
"395 470 OFFCURVE",
"407 482 OFFCURVE",
"407 496 CURVE",
"407 510 OFFCURVE",
"395 522 OFFCURVE",
"381 522 CURVE"
);
},
{
closed = 1;
nodes = (
"199 112 OFFCURVE",
"187 100 OFFCURVE",
"187 86 CURVE",
"187 72 OFFCURVE",
"199 60 OFFCURVE",
"213 60 CURVE",
"227 60 OFFCURVE",
"239 72 OFFCURVE",
"239 86 CURVE",
"239 100 OFFCURVE",
"227 112 OFFCURVE",
"213 112 CURVE"
);
},
{
closed = 1;
nodes = (
"367 112 OFFCURVE",
"355 100 OFFCURVE",
"355 86 CURVE",
"355 72 OFFCURVE",
"367 60 OFFCURVE",
"381 60 CURVE",
"395 60 OFFCURVE",
"407 72 OFFCURVE",
"407 86 CURVE",
"407 100 OFFCURVE",
"395 112 OFFCURVE",
"381 112 CURVE"
);
},
{
closed = 1;
nodes = (
"283 540 OFFCURVE",
"271 528 OFFCURVE",
"271 514 CURVE",
"271 500 OFFCURVE",
"283 488 OFFCURVE",
"297 488 CURVE",
"311 488 OFFCURVE",
"323 500 OFFCURVE",
"323 514 CURVE",
"323 528 OFFCURVE",
"311 540 OFFCURVE",
"297 540 CURVE"
);
},
{
closed = 1;
nodes = (
"283 94 OFFCURVE",
"271 82 OFFCURVE",
"271 68 CURVE",
"271 54 OFFCURVE",
"283 42 OFFCURVE",
"297 42 CURVE",
"311 42 OFFCURVE",
"323 54 OFFCURVE",
"323 68 CURVE",
"323 82 OFFCURVE",
"311 94 OFFCURVE",
"297 94 CURVE"
);
},
{
closed = 1;
nodes = (
"48 277 OFFCURVE",
"60 265 OFFCURVE",
"74 265 CURVE",
"88 265 OFFCURVE",
"100 277 OFFCURVE",
"100 291 CURVE",
"100 305 OFFCURVE",
"88 317 OFFCURVE",
"74 317 CURVE",
"60 317 OFFCURVE",
"48 305 OFFCURVE",
"48 291 CURVE"
);
},
{
closed = 1;
nodes = (
"494 277 OFFCURVE",
"506 265 OFFCURVE",
"520 265 CURVE",
"534 265 OFFCURVE",
"546 277 OFFCURVE",
"546 291 CURVE",
"546 305 OFFCURVE",
"534 317 OFFCURVE",
"520 317 CURVE",
"506 317 OFFCURVE",
"494 305 OFFCURVE",
"494 291 CURVE"
);
},
{
closed = 1;
nodes = (
"113 119 OFFCURVE",
"125 107 OFFCURVE",
"139 107 CURVE",
"153 107 OFFCURVE",
"165 119 OFFCURVE",
"165 133 CURVE",
"165 147 OFFCURVE",
"153 159 OFFCURVE",
"139 159 CURVE",
"125 159 OFFCURVE",
"113 147 OFFCURVE",
"113 133 CURVE"
);
},
{
closed = 1;
nodes = (
"113 435 OFFCURVE",
"125 423 OFFCURVE",
"139 423 CURVE",
"153 423 OFFCURVE",
"165 435 OFFCURVE",
"165 449 CURVE",
"165 463 OFFCURVE",
"153 475 OFFCURVE",
"139 475 CURVE",
"125 475 OFFCURVE",
"113 463 OFFCURVE",
"113 449 CURVE"
);
},
{
closed = 1;
nodes = (
"429 119 OFFCURVE",
"441 107 OFFCURVE",
"455 107 CURVE",
"469 107 OFFCURVE",
"481 119 OFFCURVE",
"481 133 CURVE",
"481 147 OFFCURVE",
"469 159 OFFCURVE",
"455 159 CURVE",
"441 159 OFFCURVE",
"429 147 OFFCURVE",
"429 133 CURVE"
);
},
{
closed = 1;
nodes = (
"429 435 OFFCURVE",
"441 423 OFFCURVE",
"455 423 CURVE",
"469 423 OFFCURVE",
"481 435 OFFCURVE",
"481 449 CURVE",
"481 463 OFFCURVE",
"469 475 OFFCURVE",
"455 475 CURVE",
"441 475 OFFCURVE",
"429 463 OFFCURVE",
"429 449 CURVE"
);
},
{
closed = 1;
nodes = (
"66 193 OFFCURVE",
"78 181 OFFCURVE",
"92 181 CURVE",
"106 181 OFFCURVE",
"118 193 OFFCURVE",
"118 207 CURVE",
"118 221 OFFCURVE",
"106 233 OFFCURVE",
"92 233 CURVE",
"78 233 OFFCURVE",
"66 221 OFFCURVE",
"66 207 CURVE"
);
},
{
closed = 1;
nodes = (
"66 361 OFFCURVE",
"78 349 OFFCURVE",
"92 349 CURVE",
"106 349 OFFCURVE",
"118 361 OFFCURVE",
"118 375 CURVE",
"118 389 OFFCURVE",
"106 401 OFFCURVE",
"92 401 CURVE",
"78 401 OFFCURVE",
"66 389 OFFCURVE",
"66 375 CURVE"
);
},
{
closed = 1;
nodes = (
"476 193 OFFCURVE",
"488 181 OFFCURVE",
"502 181 CURVE",
"516 181 OFFCURVE",
"528 193 OFFCURVE",
"528 207 CURVE",
"528 221 OFFCURVE",
"516 233 OFFCURVE",
"502 233 CURVE",
"488 233 OFFCURVE",
"476 221 OFFCURVE",
"476 207 CURVE"
);
},
{
closed = 1;
nodes = (
"476 361 OFFCURVE",
"488 349 OFFCURVE",
"502 349 CURVE",
"516 349 OFFCURVE",
"528 361 OFFCURVE",
"528 375 CURVE",
"528 389 OFFCURVE",
"516 401 OFFCURVE",
"502 401 CURVE",
"488 401 OFFCURVE",
"476 389 OFFCURVE",
"476 375 CURVE"
);
}
);
};
layerId = "36F3C8CB-53EE-4548-BFDE-2C03212BACAA";
paths = (
{
closed = 1;
nodes = (
"199 522 OFFCURVE",
"187 510 OFFCURVE",
"187 496 CURVE",
"187 482 OFFCURVE",
"199 470 OFFCURVE",
"213 470 CURVE",
"227 470 OFFCURVE",
"239 482 OFFCURVE",
"239 496 CURVE",
"239 510 OFFCURVE",
"227 522 OFFCURVE",
"213 522 CURVE"
);
},
{
closed = 1;
nodes = (
"367 522 OFFCURVE",
"355 510 OFFCURVE",
"355 496 CURVE",
"355 482 OFFCURVE",
"367 470 OFFCURVE",
"381 470 CURVE",
"395 470 OFFCURVE",
"407 482 OFFCURVE",
"407 496 CURVE",
"407 510 OFFCURVE",
"395 522 OFFCURVE",
"381 522 CURVE"
);
},
{
closed = 1;
nodes = (
"199 112 OFFCURVE",
"187 100 OFFCURVE",
"187 86 CURVE",
"187 72 OFFCURVE",
"199 60 OFFCURVE",
"213 60 CURVE",
"227 60 OFFCURVE",
"239 72 OFFCURVE",
"239 86 CURVE",
"239 100 OFFCURVE",
"227 112 OFFCURVE",
"213 112 CURVE"
);
},
{
closed = 1;
nodes = (
"367 112 OFFCURVE",
"355 100 OFFCURVE",
"355 86 CURVE",
"355 72 OFFCURVE",
"367 60 OFFCURVE",
"381 60 CURVE",
"395 60 OFFCURVE",
"407 72 OFFCURVE",
"407 86 CURVE",
"407 100 OFFCURVE",
"395 112 OFFCURVE",
"381 112 CURVE"
);
},
{
closed = 1;
nodes = (
"283 540 OFFCURVE",
"271 528 OFFCURVE",
"271 514 CURVE",
"271 500 OFFCURVE",
"283 488 OFFCURVE",
"297 488 CURVE",
"311 488 OFFCURVE",
"323 500 OFFCURVE",
"323 514 CURVE",
"323 528 OFFCURVE",
"311 540 OFFCURVE",
"297 540 CURVE"
);
},
{
closed = 1;
nodes = (
"283 94 OFFCURVE",
"271 82 OFFCURVE",
"271 68 CURVE",
"271 54 OFFCURVE",
"283 42 OFFCURVE",
"297 42 CURVE",
"311 42 OFFCURVE",
"323 54 OFFCURVE",
"323 68 CURVE",
"323 82 OFFCURVE",
"311 94 OFFCURVE",
"297 94 CURVE"
);
},
{
closed = 1;
nodes = (
"48 277 OFFCURVE",
"60 265 OFFCURVE",
"74 265 CURVE",
"88 265 OFFCURVE",
"100 277 OFFCURVE",
"100 291 CURVE",
"100 305 OFFCURVE",
"88 317 OFFCURVE",
"74 317 CURVE",
"60 317 OFFCURVE",
"48 305 OFFCURVE",
"48 291 CURVE"
);
},
{
closed = 1;
nodes = (
"494 277 OFFCURVE",
"506 265 OFFCURVE",
"520 265 CURVE",
"534 265 OFFCURVE",
"546 277 OFFCURVE",
"546 291 CURVE",
"546 305 OFFCURVE",
"534 317 OFFCURVE",
"520 317 CURVE",
"506 317 OFFCURVE",
"494 305 OFFCURVE",
"494 291 CURVE"
);
},
{
closed = 1;
nodes = (
"113 119 OFFCURVE",
"125 107 OFFCURVE",
"139 107 CURVE",
"153 107 OFFCURVE",
"165 119 OFFCURVE",
"165 133 CURVE",
"165 147 OFFCURVE",
"153 159 OFFCURVE",
"139 159 CURVE",
"125 159 OFFCURVE",
"113 147 OFFCURVE",
"113 133 CURVE"
);
},
{
closed = 1;
nodes = (
"113 435 OFFCURVE",
"125 423 OFFCURVE",
"139 423 CURVE",
"153 423 OFFCURVE",
"165 435 OFFCURVE",
"165 449 CURVE",
"165 463 OFFCURVE",
"153 475 OFFCURVE",
"139 475 CURVE",
"125 475 OFFCURVE",
"113 463 OFFCURVE",
"113 449 CURVE"
);
},
{
closed = 1;
nodes = (
"429 119 OFFCURVE",
"441 107 OFFCURVE",
"455 107 CURVE",
"469 107 OFFCURVE",
"481 119 OFFCURVE",
"481 133 CURVE",
"481 147 OFFCURVE",
"469 159 OFFCURVE",
"455 159 CURVE",
"441 159 OFFCURVE",
"429 147 OFFCURVE",
"429 133 CURVE"
);
},
{
closed = 1;
nodes = (
"429 435 OFFCURVE",
"441 423 OFFCURVE",
"455 423 CURVE",
"469 423 OFFCURVE",
"481 435 OFFCURVE",
"481 449 CURVE",
"481 463 OFFCURVE",
"469 475 OFFCURVE",
"455 475 CURVE",
"441 475 OFFCURVE",
"429 463 OFFCURVE",
"429 449 CURVE"
);
},
{
closed = 1;
nodes = (
"66 193 OFFCURVE",
"78 181 OFFCURVE",
"92 181 CURVE",
"106 181 OFFCURVE",
"118 193 OFFCURVE",
"118 207 CURVE",
"118 221 OFFCURVE",
"106 233 OFFCURVE",
"92 233 CURVE",
"78 233 OFFCURVE",
"66 221 OFFCURVE",
"66 207 CURVE"
);
},
{
closed = 1;
nodes = (
"66 361 OFFCURVE",
"78 349 OFFCURVE",
"92 349 CURVE",
"106 349 OFFCURVE",
"118 361 OFFCURVE",
"118 375 CURVE",
"118 389 OFFCURVE",
"106 401 OFFCURVE",
"92 401 CURVE",
"78 401 OFFCURVE",
"66 389 OFFCURVE",
"66 375 CURVE"
);
},
{
closed = 1;
nodes = (
"476 193 OFFCURVE",
"488 181 OFFCURVE",
"502 181 CURVE",
"516 181 OFFCURVE",
"528 193 OFFCURVE",
"528 207 CURVE",
"528 221 OFFCURVE",
"516 233 OFFCURVE",
"502 233 CURVE",
"488 233 OFFCURVE",
"476 221 OFFCURVE",
"476 207 CURVE"
);
},
{
closed = 1;
nodes = (
"476 361 OFFCURVE",
"488 349 OFFCURVE",
"502 349 CURVE",
"516 349 OFFCURVE",
"528 361 OFFCURVE",
"528 375 CURVE",
"528 389 OFFCURVE",
"516 401 OFFCURVE",
"502 401 CURVE",
"488 401 OFFCURVE",
"476 389 OFFCURVE",
"476 375 CURVE"
);
}
);
width = 594;
},
{
anchors = (
{
name = bottom;
position = "{297, 42}";
},
{
name = top;
position = "{297, 540}";
},
{
name = topright;
position = "{574, 547}";
}
);
associatedMasterId = UUID0;
background = {
anchors = (
{
name = bottom;
position = "{297, 42}";
},
{
name = top;
position = "{297, 540}";
},
{
name = topright;
position = "{574, 547}";
}
);
paths = (
{
closed = 1;
nodes = (
"199 522 OFFCURVE",
"187 510 OFFCURVE",
"187 496 CURVE",
"187 482 OFFCURVE",
"199 470 OFFCURVE",
"213 470 CURVE",
"227 470 OFFCURVE",
"239 482 OFFCURVE",
"239 496 CURVE",
"239 510 OFFCURVE",
"227 522 OFFCURVE",
"213 522 CURVE"
);
},
{
closed = 1;
nodes = (
"367 522 OFFCURVE",
"355 510 OFFCURVE",
"355 496 CURVE",
"355 482 OFFCURVE",
"367 470 OFFCURVE",
"381 470 CURVE",
"395 470 OFFCURVE",
"407 482 OFFCURVE",
"407 496 CURVE",
"407 510 OFFCURVE",
"395 522 OFFCURVE",
"381 522 CURVE"
);
},
{
closed = 1;
nodes = (
"199 112 OFFCURVE",
"187 100 OFFCURVE",
"187 86 CURVE",
"187 72 OFFCURVE",
"199 60 OFFCURVE",
"213 60 CURVE",
"227 60 OFFCURVE",
"239 72 OFFCURVE",
"239 86 CURVE",
"239 100 OFFCURVE",
"227 112 OFFCURVE",
"213 112 CURVE"
);
},
{
closed = 1;
nodes = (
"367 112 OFFCURVE",
"355 100 OFFCURVE",
"355 86 CURVE",
"355 72 OFFCURVE",
"367 60 OFFCURVE",
"381 60 CURVE",
"395 60 OFFCURVE",
"407 72 OFFCURVE",
"407 86 CURVE",
"407 100 OFFCURVE",
"395 112 OFFCURVE",
"381 112 CURVE"
);
},
{
closed = 1;
nodes = (
"283 540 OFFCURVE",
"271 528 OFFCURVE",
"271 514 CURVE",
"271 500 OFFCURVE",
"283 488 OFFCURVE",
"297 488 CURVE",
"311 488 OFFCURVE",
"323 500 OFFCURVE",
"323 514 CURVE",
"323 528 OFFCURVE",
"311 540 OFFCURVE",
"297 540 CURVE"
);
},
{
closed = 1;
nodes = (
"283 94 OFFCURVE",
"271 82 OFFCURVE",
"271 68 CURVE",
"271 54 OFFCURVE",
"283 42 OFFCURVE",
"297 42 CURVE",
"311 42 OFFCURVE",
"323 54 OFFCURVE",
"323 68 CURVE",
"323 82 OFFCURVE",
"311 94 OFFCURVE",
"297 94 CURVE"
);
},
{
closed = 1;
nodes = (
"48 277 OFFCURVE",
"60 265 OFFCURVE",
"74 265 CURVE",
"88 265 OFFCURVE",
"100 277 OFFCURVE",
"100 291 CURVE",
"100 305 OFFCURVE",
"88 317 OFFCURVE",
"74 317 CURVE",
"60 317 OFFCURVE",
"48 305 OFFCURVE",
"48 291 CURVE"
);
},
{
closed = 1;
nodes = (
"494 277 OFFCURVE",
"506 265 OFFCURVE",
"520 265 CURVE",
"534 265 OFFCURVE",
"546 277 OFFCURVE",
"546 291 CURVE",
"546 305 OFFCURVE",
"534 317 OFFCURVE",
"520 317 CURVE",
"506 317 OFFCURVE",
"494 305 OFFCURVE",
"494 291 CURVE"
);
},
{
closed = 1;
nodes = (
"113 119 OFFCURVE",
"125 107 OFFCURVE",
"139 107 CURVE",
"153 107 OFFCURVE",
"165 119 OFFCURVE",
"165 133 CURVE",
"165 147 OFFCURVE",
"153 159 OFFCURVE",
"139 159 CURVE",
"125 159 OFFCURVE",
"113 147 OFFCURVE",
"113 133 CURVE"
);
},
{
closed = 1;
nodes = (
"113 435 OFFCURVE",
"125 423 OFFCURVE",
"139 423 CURVE",
"153 423 OFFCURVE",
"165 435 OFFCURVE",
"165 449 CURVE",
"165 463 OFFCURVE",
"153 475 OFFCURVE",
"139 475 CURVE",
"125 475 OFFCURVE",
"113 463 OFFCURVE",
"113 449 CURVE"
);
},
{
closed = 1;
nodes = (
"429 119 OFFCURVE",
"441 107 OFFCURVE",
"455 107 CURVE",
"469 107 OFFCURVE",
"481 119 OFFCURVE",
"481 133 CURVE",
"481 147 OFFCURVE",
"469 159 OFFCURVE",
"455 159 CURVE",
"441 159 OFFCURVE",
"429 147 OFFCURVE",
"429 133 CURVE"
);
},
{
closed = 1;
nodes = (
"429 435 OFFCURVE",
"441 423 OFFCURVE",
"455 423 CURVE",
"469 423 OFFCURVE",
"481 435 OFFCURVE",
"481 449 CURVE",
"481 463 OFFCURVE",
"469 475 OFFCURVE",
"455 475 CURVE",
"441 475 OFFCURVE",
"429 463 OFFCURVE",
"429 449 CURVE"
);
},
{
closed = 1;
nodes = (
"66 193 OFFCURVE",
"78 181 OFFCURVE",
"92 181 CURVE",
"106 181 OFFCURVE",
"118 193 OFFCURVE",
"118 207 CURVE",
"118 221 OFFCURVE",
"106 233 OFFCURVE",
"92 233 CURVE",
"78 233 OFFCURVE",
"66 221 OFFCURVE",
"66 207 CURVE"
);
},
{
closed = 1;
nodes = (
"66 361 OFFCURVE",
"78 349 OFFCURVE",
"92 349 CURVE",
"106 349 OFFCURVE",
"118 361 OFFCURVE",
"118 375 CURVE",
"118 389 OFFCURVE",
"106 401 OFFCURVE",
"92 401 CURVE",
"78 401 OFFCURVE",
"66 389 OFFCURVE",
"66 375 CURVE"
);
},
{
closed = 1;
nodes = (
"476 193 OFFCURVE",
"488 181 OFFCURVE",
"502 181 CURVE",
"516 181 OFFCURVE",
"528 193 OFFCURVE",
"528 207 CURVE",
"528 221 OFFCURVE",
"516 233 OFFCURVE",
"502 233 CURVE",
"488 233 OFFCURVE",
"476 221 OFFCURVE",
"476 207 CURVE"
);
},
{
closed = 1;
nodes = (
"476 361 OFFCURVE",
"488 349 OFFCURVE",
"502 349 CURVE",
"516 349 OFFCURVE",
"528 361 OFFCURVE",
"528 375 CURVE",
"528 389 OFFCURVE",
"516 401 OFFCURVE",
"502 401 CURVE",
"488 401 OFFCURVE",
"476 389 OFFCURVE",
"476 375 CURVE"
);
}
);
};
layerId = "43B45EC1-5522-4B1A-B0C7-88628E50A583";
paths = (
{
closed = 1;
nodes = (
"199 522 OFFCURVE",
"187 510 OFFCURVE",
"187 496 CURVE",
"187 482 OFFCURVE",
"199 470 OFFCURVE",
"213 470 CURVE",
"227 470 OFFCURVE",
"239 482 OFFCURVE",
"239 496 CURVE",
"239 510 OFFCURVE",
"227 522 OFFCURVE",
"213 522 CURVE"
);
},
{
closed = 1;
nodes = (
"367 522 OFFCURVE",
"355 510 OFFCURVE",
"355 496 CURVE",
"355 482 OFFCURVE",
"367 470 OFFCURVE",
"381 470 CURVE",
"395 470 OFFCURVE",
"407 482 OFFCURVE",
"407 496 CURVE",
"407 510 OFFCURVE",
"395 522 OFFCURVE",
"381 522 CURVE"
);
},
{
closed = 1;
nodes = (
"199 112 OFFCURVE",
"187 100 OFFCURVE",
"187 86 CURVE",
"187 72 OFFCURVE",
"199 60 OFFCURVE",
"213 60 CURVE",
"227 60 OFFCURVE",
"239 72 OFFCURVE",
"239 86 CURVE",
"239 100 OFFCURVE",
"227 112 OFFCURVE",
"213 112 CURVE"
);
},
{
closed = 1;
nodes = (
"367 112 OFFCURVE",
"355 100 OFFCURVE",
"355 86 CURVE",
"355 72 OFFCURVE",
"367 60 OFFCURVE",
"381 60 CURVE",
"395 60 OFFCURVE",
"407 72 OFFCURVE",
"407 86 CURVE",
"407 100 OFFCURVE",
"395 112 OFFCURVE",
"381 112 CURVE"
);
},
{
closed = 1;
nodes = (
"283 540 OFFCURVE",
"271 528 OFFCURVE",
"271 514 CURVE",
"271 500 OFFCURVE",
"283 488 OFFCURVE",
"297 488 CURVE",
"311 488 OFFCURVE",
"323 500 OFFCURVE",
"323 514 CURVE",
"323 528 OFFCURVE",
"311 540 OFFCURVE",
"297 540 CURVE"
);
},
{
closed = 1;
nodes = (
"283 94 OFFCURVE",
"271 82 OFFCURVE",
"271 68 CURVE",
"271 54 OFFCURVE",
"283 42 OFFCURVE",
"297 42 CURVE",
"311 42 OFFCURVE",
"323 54 OFFCURVE",
"323 68 CURVE",
"323 82 OFFCURVE",
"311 94 OFFCURVE",
"297 94 CURVE"
);
},
{
closed = 1;
nodes = (
"48 277 OFFCURVE",
"60 265 OFFCURVE",
"74 265 CURVE",
"88 265 OFFCURVE",
"100 277 OFFCURVE",
"100 291 CURVE",
"100 305 OFFCURVE",
"88 317 OFFCURVE",
"74 317 CURVE",
"60 317 OFFCURVE",
"48 305 OFFCURVE",
"48 291 CURVE"
);
},
{
closed = 1;
nodes = (
"494 277 OFFCURVE",
"506 265 OFFCURVE",
"520 265 CURVE",
"534 265 OFFCURVE",
"546 277 OFFCURVE",
"546 291 CURVE",
"546 305 OFFCURVE",
"534 317 OFFCURVE",
"520 317 CURVE",
"506 317 OFFCURVE",
"494 305 OFFCURVE",
"494 291 CURVE"
);
},
{
closed = 1;
nodes = (
"113 119 OFFCURVE",
"125 107 OFFCURVE",
"139 107 CURVE",
"153 107 OFFCURVE",
"165 119 OFFCURVE",
"165 133 CURVE",
"165 147 OFFCURVE",
"153 159 OFFCURVE",
"139 159 CURVE",
"125 159 OFFCURVE",
"113 147 OFFCURVE",
"113 133 CURVE"
);
},
{
closed = 1;
nodes = (
"113 435 OFFCURVE",
"125 423 OFFCURVE",
"139 423 CURVE",
"153 423 OFFCURVE",
"165 435 OFFCURVE",
"165 449 CURVE",
"165 463 OFFCURVE",
"153 475 OFFCURVE",
"139 475 CURVE",
"125 475 OFFCURVE",
"113 463 OFFCURVE",
"113 449 CURVE"
);
},
{
closed = 1;
nodes = (
"429 119 OFFCURVE",
"441 107 OFFCURVE",
"455 107 CURVE",
"469 107 OFFCURVE",
"481 119 OFFCURVE",
"481 133 CURVE",
"481 147 OFFCURVE",
"469 159 OFFCURVE",
"455 159 CURVE",
"441 159 OFFCURVE",
"429 147 OFFCURVE",
"429 133 CURVE"
);
},
{
closed = 1;
nodes = (
"429 435 OFFCURVE",
"441 423 OFFCURVE",
"455 423 CURVE",
"469 423 OFFCURVE",
"481 435 OFFCURVE",
"481 449 CURVE",
"481 463 OFFCURVE",
"469 475 OFFCURVE",
"455 475 CURVE",
"441 475 OFFCURVE",
"429 463 OFFCURVE",
"429 449 CURVE"
);
},
{
closed = 1;
nodes = (
"66 193 OFFCURVE",
"78 181 OFFCURVE",
"92 181 CURVE",
"106 181 OFFCURVE",
"118 193 OFFCURVE",
"118 207 CURVE",
"118 221 OFFCURVE",
"106 233 OFFCURVE",
"92 233 CURVE",
"78 233 OFFCURVE",
"66 221 OFFCURVE",
"66 207 CURVE"
);
},
{
closed = 1;
nodes = (
"66 361 OFFCURVE",
"78 349 OFFCURVE",
"92 349 CURVE",
"106 349 OFFCURVE",
"118 361 OFFCURVE",
"118 375 CURVE",
"118 389 OFFCURVE",
"106 401 OFFCURVE",
"92 401 CURVE",
"78 401 OFFCURVE",
"66 389 OFFCURVE",
"66 375 CURVE"
);
},
{
closed = 1;
nodes = (
"476 193 OFFCURVE",
"488 181 OFFCURVE",
"502 181 CURVE",
"516 181 OFFCURVE",
"528 193 OFFCURVE",
"528 207 CURVE",
"528 221 OFFCURVE",
"516 233 OFFCURVE",
"502 233 CURVE",
"488 233 OFFCURVE",
"476 221 OFFCURVE",
"476 207 CURVE"
);
},
{
closed = 1;
nodes = (
"476 361 OFFCURVE",
"488 349 OFFCURVE",
"502 349 CURVE",
"516 349 OFFCURVE",
"528 361 OFFCURVE",
"528 375 CURVE",
"528 389 OFFCURVE",
"516 401 OFFCURVE",
"502 401 CURVE",
"488 401 OFFCURVE",
"476 389 OFFCURVE",
"476 375 CURVE"
);
}
);
width = 594;
},
{
anchors = (
{
name = bottom;
position = "{297, 0}";
},
{
name = bottom_alt;
position = "{87, 0}";
},
{
name = top;
position = "{297, 605}";
}
);
layerId = UUID0;
paths = (
{
closed = 1;
nodes = (
"199 522 OFFCURVE",
"187 510 OFFCURVE",
"187 496 CURVE SMOOTH",
"187 482 OFFCURVE",
"199 470 OFFCURVE",
"213 470 CURVE SMOOTH",
"227 470 OFFCURVE",
"239 482 OFFCURVE",
"239 496 CURVE SMOOTH",
"239 510 OFFCURVE",
"227 522 OFFCURVE",
"213 522 CURVE SMOOTH"
);
},
{
closed = 1;
nodes = (
"367 522 OFFCURVE",
"355 510 OFFCURVE",
"355 496 CURVE SMOOTH",
"355 482 OFFCURVE",
"367 470 OFFCURVE",
"381 470 CURVE SMOOTH",
"395 470 OFFCURVE",
"407 482 OFFCURVE",
"407 496 CURVE SMOOTH",
"407 510 OFFCURVE",
"395 522 OFFCURVE",
"381 522 CURVE SMOOTH"
);
},
{
closed = 1;
nodes = (
"199 112 OFFCURVE",
"187 100 OFFCURVE",
"187 86 CURVE SMOOTH",
"187 72 OFFCURVE",
"199 60 OFFCURVE",
"213 60 CURVE SMOOTH",
"227 60 OFFCURVE",
"239 72 OFFCURVE",
"239 86 CURVE SMOOTH",
"239 100 OFFCURVE",
"227 112 OFFCURVE",
"213 112 CURVE SMOOTH"
);
},
{
closed = 1;
nodes = (
"367 112 OFFCURVE",
"355 100 OFFCURVE",
"355 86 CURVE SMOOTH",
"355 72 OFFCURVE",
"367 60 OFFCURVE",
"381 60 CURVE SMOOTH",
"395 60 OFFCURVE",
"407 72 OFFCURVE",
"407 86 CURVE SMOOTH",
"407 100 OFFCURVE",
"395 112 OFFCURVE",
"381 112 CURVE SMOOTH"
);
},
{
closed = 1;
nodes = (
"283 540 OFFCURVE",
"271 528 OFFCURVE",
"271 514 CURVE SMOOTH",
"271 500 OFFCURVE",
"283 488 OFFCURVE",
"297 488 CURVE SMOOTH",
"311 488 OFFCURVE",
"323 500 OFFCURVE",
"323 514 CURVE SMOOTH",
"323 528 OFFCURVE",
"311 540 OFFCURVE",
"297 540 CURVE SMOOTH"
);
},
{
closed = 1;
nodes = (
"283 94 OFFCURVE",
"271 82 OFFCURVE",
"271 68 CURVE SMOOTH",
"271 54 OFFCURVE",
"283 42 OFFCURVE",
"297 42 CURVE SMOOTH",
"311 42 OFFCURVE",
"323 54 OFFCURVE",
"323 68 CURVE SMOOTH",
"323 82 OFFCURVE",
"311 94 OFFCURVE",
"297 94 CURVE SMOOTH"
);
},
{
closed = 1;
nodes = (
"48 277 OFFCURVE",
"60 265 OFFCURVE",
"74 265 CURVE SMOOTH",
"88 265 OFFCURVE",
"100 277 OFFCURVE",
"100 291 CURVE SMOOTH",
"100 305 OFFCURVE",
"88 317 OFFCURVE",
"74 317 CURVE SMOOTH",
"60 317 OFFCURVE",
"48 305 OFFCURVE",
"48 291 CURVE SMOOTH"
);
},
{
closed = 1;
nodes = (
"494 277 OFFCURVE",
"506 265 OFFCURVE",
"520 265 CURVE SMOOTH",
"534 265 OFFCURVE",
"546 277 OFFCURVE",
"546 291 CURVE SMOOTH",
"546 305 OFFCURVE",
"534 317 OFFCURVE",
"520 317 CURVE SMOOTH",
"506 317 OFFCURVE",
"494 305 OFFCURVE",
"494 291 CURVE SMOOTH"
);
},
{
closed = 1;
nodes = (
"113 119 OFFCURVE",
"125 107 OFFCURVE",
"139 107 CURVE SMOOTH",
"153 107 OFFCURVE",
"165 119 OFFCURVE",
"165 133 CURVE SMOOTH",
"165 147 OFFCURVE",
"153 159 OFFCURVE",
"139 159 CURVE SMOOTH",
"125 159 OFFCURVE",
"113 147 OFFCURVE",
"113 133 CURVE SMOOTH"
);
},
{
closed = 1;
nodes = (
"113 435 OFFCURVE",
"125 423 OFFCURVE",
"139 423 CURVE SMOOTH",
"153 423 OFFCURVE",
"165 435 OFFCURVE",
"165 449 CURVE SMOOTH",
"165 463 OFFCURVE",
"153 475 OFFCURVE",
"139 475 CURVE SMOOTH",
"125 475 OFFCURVE",
"113 463 OFFCURVE",
"113 449 CURVE SMOOTH"
);
},
{
closed = 1;
nodes = (
"429 119 OFFCURVE",
"441 107 OFFCURVE",
"455 107 CURVE SMOOTH",
"469 107 OFFCURVE",
"481 119 OFFCURVE",
"481 133 CURVE SMOOTH",
"481 147 OFFCURVE",
"469 159 OFFCURVE",
"455 159 CURVE SMOOTH",
"441 159 OFFCURVE",
"429 147 OFFCURVE",
"429 133 CURVE SMOOTH"
);
},
{
closed = 1;
nodes = (
"429 435 OFFCURVE",
"441 423 OFFCURVE",
"455 423 CURVE SMOOTH",
"469 423 OFFCURVE",
"481 435 OFFCURVE",
"481 449 CURVE SMOOTH",
"481 463 OFFCURVE",
"469 475 OFFCURVE",
"455 475 CURVE SMOOTH",
"441 475 OFFCURVE",
"429 463 OFFCURVE",
"429 449 CURVE SMOOTH"
);
},
{
closed = 1;
nodes = (
"66 193 OFFCURVE",
"78 181 OFFCURVE",
"92 181 CURVE SMOOTH",
"106 181 OFFCURVE",
"118 193 OFFCURVE",
"118 207 CURVE SMOOTH",
"118 221 OFFCURVE",
"106 233 OFFCURVE",
"92 233 CURVE SMOOTH",
"78 233 OFFCURVE",
"66 221 OFFCURVE",
"66 207 CURVE SMOOTH"
);
},
{
closed = 1;
nodes = (
"66 361 OFFCURVE",
"78 349 OFFCURVE",
"92 349 CURVE SMOOTH",
"106 349 OFFCURVE",
"118 361 OFFCURVE",
"118 375 CURVE SMOOTH",
"118 389 OFFCURVE",
"106 401 OFFCURVE",
"92 401 CURVE SMOOTH",
"78 401 OFFCURVE",
"66 389 OFFCURVE",
"66 375 CURVE SMOOTH"
);
},
{
closed = 1;
nodes = (
"476 193 OFFCURVE",
"488 181 OFFCURVE",
"502 181 CURVE SMOOTH",
"516 181 OFFCURVE",
"528 193 OFFCURVE",
"528 207 CURVE SMOOTH",
"528 221 OFFCURVE",
"516 233 OFFCURVE",
"502 233 CURVE SMOOTH",
"488 233 OFFCURVE",
"476 221 OFFCURVE",
"476 207 CURVE SMOOTH"
);
},
{
closed = 1;
nodes = (
"476 361 OFFCURVE",
"488 349 OFFCURVE",
"502 349 CURVE SMOOTH",
"516 349 OFFCURVE",
"528 361 OFFCURVE",
"528 375 CURVE SMOOTH",
"528 389 OFFCURVE",
"516 401 OFFCURVE",
"502 401 CURVE SMOOTH",
"488 401 OFFCURVE",
"476 389 OFFCURVE",
"476 375 CURVE SMOOTH"
);
}
);
width = 594;
},
{
anchors = (
{
name = bottom;
position = "{297, 42}";
},
{
name = top;
position = "{297, 540}";
},
{
name = topright;
position = "{574, 527}";
}
);
associatedMasterId = UUID0;
background = {
anchors = (
{
name = bottom;
position = "{297, 42}";
},
{
name = top;
position = "{297, 540}";
},
{
name = topright;
position = "{574, 527}";
}
);
paths = (
{
closed = 1;
nodes = (
"199 522 OFFCURVE",
"187 510 OFFCURVE",
"187 496 CURVE",
"187 482 OFFCURVE",
"199 470 OFFCURVE",
"213 470 CURVE",
"227 470 OFFCURVE",
"239 482 OFFCURVE",
"239 496 CURVE",
"239 510 OFFCURVE",
"227 522 OFFCURVE",
"213 522 CURVE"
);
},
{
closed = 1;
nodes = (
"367 522 OFFCURVE",
"355 510 OFFCURVE",
"355 496 CURVE",
"355 482 OFFCURVE",
"367 470 OFFCURVE",
"381 470 CURVE",
"395 470 OFFCURVE",
"407 482 OFFCURVE",
"407 496 CURVE",
"407 510 OFFCURVE",
"395 522 OFFCURVE",
"381 522 CURVE"
);
},
{
closed = 1;
nodes = (
"199 112 OFFCURVE",
"187 100 OFFCURVE",
"187 86 CURVE",
"187 72 OFFCURVE",
"199 60 OFFCURVE",
"213 60 CURVE",
"227 60 OFFCURVE",
"239 72 OFFCURVE",
"239 86 CURVE",
"239 100 OFFCURVE",
"227 112 OFFCURVE",
"213 112 CURVE"
);
},
{
closed = 1;
nodes = (
"367 112 OFFCURVE",
"355 100 OFFCURVE",
"355 86 CURVE",
"355 72 OFFCURVE",
"367 60 OFFCURVE",
"381 60 CURVE",
"395 60 OFFCURVE",
"407 72 OFFCURVE",
"407 86 CURVE",
"407 100 OFFCURVE",
"395 112 OFFCURVE",
"381 112 CURVE"
);
},
{
closed = 1;
nodes = (
"283 540 OFFCURVE",
"271 528 OFFCURVE",
"271 514 CURVE",
"271 500 OFFCURVE",
"283 488 OFFCURVE",
"297 488 CURVE",
"311 488 OFFCURVE",
"323 500 OFFCURVE",
"323 514 CURVE",
"323 528 OFFCURVE",
"311 540 OFFCURVE",
"297 540 CURVE"
);
},
{
closed = 1;
nodes = (
"283 94 OFFCURVE",
"271 82 OFFCURVE",
"271 68 CURVE",
"271 54 OFFCURVE",
"283 42 OFFCURVE",
"297 42 CURVE",
"311 42 OFFCURVE",
"323 54 OFFCURVE",
"323 68 CURVE",
"323 82 OFFCURVE",
"311 94 OFFCURVE",
"297 94 CURVE"
);
},
{
closed = 1;
nodes = (
"48 277 OFFCURVE",
"60 265 OFFCURVE",
"74 265 CURVE",
"88 265 OFFCURVE",
"100 277 OFFCURVE",
"100 291 CURVE",
"100 305 OFFCURVE",
"88 317 OFFCURVE",
"74 317 CURVE",
"60 317 OFFCURVE",
"48 305 OFFCURVE",
"48 291 CURVE"
);
},
{
closed = 1;
nodes = (
"494 277 OFFCURVE",
"506 265 OFFCURVE",
"520 265 CURVE",
"534 265 OFFCURVE",
"546 277 OFFCURVE",
"546 291 CURVE",
"546 305 OFFCURVE",
"534 317 OFFCURVE",
"520 317 CURVE",
"506 317 OFFCURVE",
"494 305 OFFCURVE",
"494 291 CURVE"
);
},
{
closed = 1;
nodes = (
"113 119 OFFCURVE",
"125 107 OFFCURVE",
"139 107 CURVE",
"153 107 OFFCURVE",
"165 119 OFFCURVE",
"165 133 CURVE",
"165 147 OFFCURVE",
"153 159 OFFCURVE",
"139 159 CURVE",
"125 159 OFFCURVE",
"113 147 OFFCURVE",
"113 133 CURVE"
);
},
{
closed = 1;
nodes = (
"113 435 OFFCURVE",
"125 423 OFFCURVE",
"139 423 CURVE",
"153 423 OFFCURVE",
"165 435 OFFCURVE",
"165 449 CURVE",
"165 463 OFFCURVE",
"153 475 OFFCURVE",
"139 475 CURVE",
"125 475 OFFCURVE",
"113 463 OFFCURVE",
"113 449 CURVE"
);
},
{
closed = 1;
nodes = (
"429 119 OFFCURVE",
"441 107 OFFCURVE",
"455 107 CURVE",
"469 107 OFFCURVE",
"481 119 OFFCURVE",
"481 133 CURVE",
"481 147 OFFCURVE",
"469 159 OFFCURVE",
"455 159 CURVE",
"441 159 OFFCURVE",
"429 147 OFFCURVE",
"429 133 CURVE"
);
},
{
closed = 1;
nodes = (
"429 435 OFFCURVE",
"441 423 OFFCURVE",
"455 423 CURVE",
"469 423 OFFCURVE",
"481 435 OFFCURVE",
"481 449 CURVE",
"481 463 OFFCURVE",
"469 475 OFFCURVE",
"455 475 CURVE",
"441 475 OFFCURVE",
"429 463 OFFCURVE",
"429 449 CURVE"
);
},
{
closed = 1;
nodes = (
"66 193 OFFCURVE",
"78 181 OFFCURVE",
"92 181 CURVE",
"106 181 OFFCURVE",
"118 193 OFFCURVE",
"118 207 CURVE",
"118 221 OFFCURVE",
"106 233 OFFCURVE",
"92 233 CURVE",
"78 233 OFFCURVE",
"66 221 OFFCURVE",
"66 207 CURVE"
);
},
{
closed = 1;
nodes = (
"66 361 OFFCURVE",
"78 349 OFFCURVE",
"92 349 CURVE",
"106 349 OFFCURVE",
"118 361 OFFCURVE",
"118 375 CURVE",
"118 389 OFFCURVE",
"106 401 OFFCURVE",
"92 401 CURVE",
"78 401 OFFCURVE",
"66 389 OFFCURVE",
"66 375 CURVE"
);
},
{
closed = 1;
nodes = (
"476 193 OFFCURVE",
"488 181 OFFCURVE",
"502 181 CURVE",
"516 181 OFFCURVE",
"528 193 OFFCURVE",
"528 207 CURVE",
"528 221 OFFCURVE",
"516 233 OFFCURVE",
"502 233 CURVE",
"488 233 OFFCURVE",
"476 221 OFFCURVE",
"476 207 CURVE"
);
},
{
closed = 1;
nodes = (
"476 361 OFFCURVE",
"488 349 OFFCURVE",
"502 349 CURVE",
"516 349 OFFCURVE",
"528 361 OFFCURVE",
"528 375 CURVE",
"528 389 OFFCURVE",
"516 401 OFFCURVE",
"502 401 CURVE",
"488 401 OFFCURVE",
"476 389 OFFCURVE",
"476 375 CURVE"
);
}
);
};
layerId = "029FEF0C-5FA4-4A3E-AC23-838A1147A554";
paths = (
{
closed = 1;
nodes = (
"199 522 OFFCURVE",
"187 510 OFFCURVE",
"187 496 CURVE",
"187 482 OFFCURVE",
"199 470 OFFCURVE",
"213 470 CURVE",
"227 470 OFFCURVE",
"239 482 OFFCURVE",
"239 496 CURVE",
"239 510 OFFCURVE",
"227 522 OFFCURVE",
"213 522 CURVE"
);
},
{
closed = 1;
nodes = (
"367 522 OFFCURVE",
"355 510 OFFCURVE",
"355 496 CURVE",
"355 482 OFFCURVE",
"367 470 OFFCURVE",
"381 470 CURVE",
"395 470 OFFCURVE",
"407 482 OFFCURVE",
"407 496 CURVE",
"407 510 OFFCURVE",
"395 522 OFFCURVE",
"381 522 CURVE"
);
},
{
closed = 1;
nodes = (
"199 112 OFFCURVE",
"187 100 OFFCURVE",
"187 86 CURVE",
"187 72 OFFCURVE",
"199 60 OFFCURVE",
"213 60 CURVE",
"227 60 OFFCURVE",
"239 72 OFFCURVE",
"239 86 CURVE",
"239 100 OFFCURVE",
"227 112 OFFCURVE",
"213 112 CURVE"
);
},
{
closed = 1;
nodes = (
"367 112 OFFCURVE",
"355 100 OFFCURVE",
"355 86 CURVE",
"355 72 OFFCURVE",
"367 60 OFFCURVE",
"381 60 CURVE",
"395 60 OFFCURVE",
"407 72 OFFCURVE",
"407 86 CURVE",
"407 100 OFFCURVE",
"395 112 OFFCURVE",
"381 112 CURVE"
);
},
{
closed = 1;
nodes = (
"283 540 OFFCURVE",
"271 528 OFFCURVE",
"271 514 CURVE",
"271 500 OFFCURVE",
"283 488 OFFCURVE",
"297 488 CURVE",
"311 488 OFFCURVE",
"323 500 OFFCURVE",
"323 514 CURVE",
"323 528 OFFCURVE",
"311 540 OFFCURVE",
"297 540 CURVE"
);
},
{
closed = 1;
nodes = (
"283 94 OFFCURVE",
"271 82 OFFCURVE",
"271 68 CURVE",
"271 54 OFFCURVE",
"283 42 OFFCURVE",
"297 42 CURVE",
"311 42 OFFCURVE",
"323 54 OFFCURVE",
"323 68 CURVE",
"323 82 OFFCURVE",
"311 94 OFFCURVE",
"297 94 CURVE"
);
},
{
closed = 1;
nodes = (
"48 277 OFFCURVE",
"60 265 OFFCURVE",
"74 265 CURVE",
"88 265 OFFCURVE",
"100 277 OFFCURVE",
"100 291 CURVE",
"100 305 OFFCURVE",
"88 317 OFFCURVE",
"74 317 CURVE",
"60 317 OFFCURVE",
"48 305 OFFCURVE",
"48 291 CURVE"
);
},
{
closed = 1;
nodes = (
"494 277 OFFCURVE",
"506 265 OFFCURVE",
"520 265 CURVE",
"534 265 OFFCURVE",
"546 277 OFFCURVE",
"546 291 CURVE",
"546 305 OFFCURVE",
"534 317 OFFCURVE",
"520 317 CURVE",
"506 317 OFFCURVE",
"494 305 OFFCURVE",
"494 291 CURVE"
);
},
{
closed = 1;
nodes = (
"113 119 OFFCURVE",
"125 107 OFFCURVE",
"139 107 CURVE",
"153 107 OFFCURVE",
"165 119 OFFCURVE",
"165 133 CURVE",
"165 147 OFFCURVE",
"153 159 OFFCURVE",
"139 159 CURVE",
"125 159 OFFCURVE",
"113 147 OFFCURVE",
"113 133 CURVE"
);
},
{
closed = 1;
nodes = (
"113 435 OFFCURVE",
"125 423 OFFCURVE",
"139 423 CURVE",
"153 423 OFFCURVE",
"165 435 OFFCURVE",
"165 449 CURVE",
"165 463 OFFCURVE",
"153 475 OFFCURVE",
"139 475 CURVE",
"125 475 OFFCURVE",
"113 463 OFFCURVE",
"113 449 CURVE"
);
},
{
closed = 1;
nodes = (
"429 119 OFFCURVE",
"441 107 OFFCURVE",
"455 107 CURVE",
"469 107 OFFCURVE",
"481 119 OFFCURVE",
"481 133 CURVE",
"481 147 OFFCURVE",
"469 159 OFFCURVE",
"455 159 CURVE",
"441 159 OFFCURVE",
"429 147 OFFCURVE",
"429 133 CURVE"
);
},
{
closed = 1;
nodes = (
"429 435 OFFCURVE",
"441 423 OFFCURVE",
"455 423 CURVE",
"469 423 OFFCURVE",
"481 435 OFFCURVE",
"481 449 CURVE",
"481 463 OFFCURVE",
"469 475 OFFCURVE",
"455 475 CURVE",
"441 475 OFFCURVE",
"429 463 OFFCURVE",
"429 449 CURVE"
);
},
{
closed = 1;
nodes = (
"66 193 OFFCURVE",
"78 181 OFFCURVE",
"92 181 CURVE",
"106 181 OFFCURVE",
"118 193 OFFCURVE",
"118 207 CURVE",
"118 221 OFFCURVE",
"106 233 OFFCURVE",
"92 233 CURVE",
"78 233 OFFCURVE",
"66 221 OFFCURVE",
"66 207 CURVE"
);
},
{
closed = 1;
nodes = (
"66 361 OFFCURVE",
"78 349 OFFCURVE",
"92 349 CURVE",
"106 349 OFFCURVE",
"118 361 OFFCURVE",
"118 375 CURVE",
"118 389 OFFCURVE",
"106 401 OFFCURVE",
"92 401 CURVE",
"78 401 OFFCURVE",
"66 389 OFFCURVE",
"66 375 CURVE"
);
},
{
closed = 1;
nodes = (
"476 193 OFFCURVE",
"488 181 OFFCURVE",
"502 181 CURVE",
"516 181 OFFCURVE",
"528 193 OFFCURVE",
"528 207 CURVE",
"528 221 OFFCURVE",
"516 233 OFFCURVE",
"502 233 CURVE",
"488 233 OFFCURVE",
"476 221 OFFCURVE",
"476 207 CURVE"
);
},
{
closed = 1;
nodes = (
"476 361 OFFCURVE",
"488 349 OFFCURVE",
"502 349 CURVE",
"516 349 OFFCURVE",
"528 361 OFFCURVE",
"528 375 CURVE",
"528 389 OFFCURVE",
"516 401 OFFCURVE",
"502 401 CURVE",
"488 401 OFFCURVE",
"476 389 OFFCURVE",
"476 375 CURVE"
);
}
);
width = 594;
}
);
unicode = 25CC;
},
{
glyphname = uni200C;
production = uni200C;
lastChange = "2017-02-23 22:13:51 +0000";
layers = (
{
associatedMasterId = UUID0;
background = {
paths = (
{
closed = 1;
nodes = (
"21 -133 LINE",
"21 628 LINE",
"-21 628 LINE",
"-21 -133 LINE"
);
}
);
};
layerId = "0A718E2F-231D-484E-9433-16A5230D2CE8";
paths = (
{
closed = 1;
nodes = (
"21 -133 LINE",
"21 628 LINE",
"-21 628 LINE",
"-21 -133 LINE"
);
}
);
width = 0;
},
{
associatedMasterId = UUID0;
background = {
paths = (
{
closed = 1;
nodes = (
"21 -133 LINE",
"21 628 LINE",
"-21 628 LINE",
"-21 -133 LINE"
);
}
);
};
layerId = "98E204A9-1C79-49C7-AB3E-40A925F56409";
paths = (
{
closed = 1;
nodes = (
"21 -133 LINE",
"21 628 LINE",
"-21 628 LINE",
"-21 -133 LINE"
);
}
);
width = 0;
},
{
associatedMasterId = UUID0;
background = {
paths = (
{
closed = 1;
nodes = (
"21 -133 LINE",
"21 628 LINE",
"-21 628 LINE",
"-21 -133 LINE"
);
}
);
};
layerId = "9FF96064-8718-4A86-A5C8-73C592101F67";
paths = (
{
closed = 1;
nodes = (
"21 -133 LINE",
"21 628 LINE",
"-21 628 LINE",
"-21 -133 LINE"
);
}
);
width = 0;
},
{
associatedMasterId = UUID0;
background = {
paths = (
{
closed = 1;
nodes = (
"21 -133 LINE",
"21 628 LINE",
"-21 628 LINE",
"-21 -133 LINE"
);
}
);
};
layerId = "134B12F2-BF5D-48E3-8003-C7502B438C7E";
paths = (
{
closed = 1;
nodes = (
"21 -133 LINE",
"21 628 LINE",
"-21 628 LINE",
"-21 -133 LINE"
);
}
);
width = 0;
},
{
associatedMasterId = UUID0;
background = {
paths = (
{
closed = 1;
nodes = (
"21 -133 LINE",
"21 628 LINE",
"-21 628 LINE",
"-21 -133 LINE"
);
}
);
};
layerId = "36F3C8CB-53EE-4548-BFDE-2C03212BACAA";
paths = (
{
closed = 1;
nodes = (
"21 -133 LINE",
"21 628 LINE",
"-21 628 LINE",
"-21 -133 LINE"
);
}
);
width = 0;
},
{
associatedMasterId = UUID0;
background = {
paths = (
{
closed = 1;
nodes = (
"21 -133 LINE",
"21 628 LINE",
"-21 628 LINE",
"-21 -133 LINE"
);
}
);
};
layerId = "43B45EC1-5522-4B1A-B0C7-88628E50A583";
paths = (
{
closed = 1;
nodes = (
"21 -133 LINE",
"21 628 LINE",
"-21 628 LINE",
"-21 -133 LINE"
);
}
);
width = 0;
},
{
layerId = UUID0;
paths = (
{
closed = 1;
nodes = (
"21 -133 LINE",
"21 628 LINE",
"-21 628 LINE",
"-21 -133 LINE"
);
}
);
width = 0;
},
{
associatedMasterId = UUID0;
background = {
paths = (
{
closed = 1;
nodes = (
"21 -133 LINE",
"21 628 LINE",
"-21 628 LINE",
"-21 -133 LINE"
);
}
);
};
layerId = "029FEF0C-5FA4-4A3E-AC23-838A1147A554";
paths = (
{
closed = 1;
nodes = (
"21 -133 LINE",
"21 628 LINE",
"-21 628 LINE",
"-21 -133 LINE"
);
}
);
width = 0;
}
);
unicode = 200C;
},
{
glyphname = uni200D;
production = uni200D;
lastChange = "2017-02-23 22:13:51 +0000";
layers = (
{
associatedMasterId = UUID0;
background = {
paths = (
{
closed = 1;
nodes = (
"21 -133 LINE",
"21 535 LINE",
"83 473 LINE",
"109 500 LINE",
"27 582 LINE",
"109 663 LINE",
"83 690 LINE",
"0 607 LINE",
"-83 690 LINE",
"-109 663 LINE",
"-27 582 LINE",
"-109 500 LINE",
"-83 473 LINE",
"-21 535 LINE",
"-21 -133 LINE"
);
}
